<?xml version="1.0" encoding="UTF-8" standalone="no"?>
<!-- Created with Inkscape (http://www.inkscape.org/) -->

<svg
   xmlns:dc="http://purl.org/dc/elements/1.1/"
   xmlns:cc="http://creativecommons.org/ns#"
   xmlns:rdf="http://www.w3.org/1999/02/22-rdf-syntax-ns#"
   xmlns:svg="http://www.w3.org/2000/svg"
   xmlns="http://www.w3.org/2000/svg"
   xmlns:sodipodi="http://sodipodi.sourceforge.net/DTD/sodipodi-0.dtd"
   xmlns:inkscape="http://www.inkscape.org/namespaces/inkscape"
   width="131.77612mm"
   height="117.59466mm"
   viewBox="0 0 131.77612 117.59466"
   version="1.1"
   id="svg8"
   inkscape:version="0.92.5 (2060ec1f9f, 2020-04-08)"
   sodipodi:docname="parameter_passing.svg">
  <defs
     id="defs2">
    <marker
       inkscape:stockid="Arrow1Lend"
       orient="auto"
       refY="0"
       refX="0"
       id="Arrow1Lend"
       style="overflow:visible"
       inkscape:isstock="true">
      <path
         id="path4853"
         d="M 0,0 5,-5 -12.5,0 5,5 Z"
         style="fill:#f2f2f2;fill-opacity:1;fill-rule:evenodd;stroke:#e6e6e6;stroke-width:1.00000003pt;stroke-opacity:1"
         transform="matrix(-0.8,0,0,-0.8,-10,0)"
         inkscape:connector-curvature="0" />
    </marker>
    <marker
       inkscape:stockid="Arrow1Lend"
       orient="auto"
       refY="0"
       refX="0"
       id="Arrow1Lend-0"
       style="overflow:visible"
       inkscape:isstock="true">
      <path
         inkscape:connector-curvature="0"
         id="path4853-6"
         d="M 0,0 5,-5 -12.5,0 5,5 Z"
         style="fill:#f2f2f2;fill-opacity:1;fill-rule:evenodd;stroke:#e6e6e6;stroke-width:1.00000003pt;stroke-opacity:1"
         transform="matrix(-0.8,0,0,-0.8,-10,0)" />
    </marker>
    <marker
       inkscape:stockid="Arrow1Lend"
       orient="auto"
       refY="0"
       refX="0"
       id="Arrow1Lend-3"
       style="overflow:visible"
       inkscape:isstock="true">
      <path
         inkscape:connector-curvature="0"
         id="path4853-7"
         d="M 0,0 5,-5 -12.5,0 5,5 Z"
         style="fill:#f2f2f2;fill-opacity:1;fill-rule:evenodd;stroke:#e6e6e6;stroke-width:1.00000003pt;stroke-opacity:1"
         transform="matrix(-0.8,0,0,-0.8,-10,0)" />
    </marker>
    <marker
       inkscape:stockid="Arrow1Lend"
       orient="auto"
       refY="0"
       refX="0"
       id="Arrow1Lend-0-5"
       style="overflow:visible"
       inkscape:isstock="true">
      <path
         inkscape:connector-curvature="0"
         id="path4853-6-9"
         d="M 0,0 5,-5 -12.5,0 5,5 Z"
         style="fill:#f2f2f2;fill-opacity:1;fill-rule:evenodd;stroke:#e6e6e6;stroke-width:1.00000003pt;stroke-opacity:1"
         transform="matrix(-0.8,0,0,-0.8,-10,0)" />
    </marker>
    <marker
       inkscape:stockid="Arrow1Lend"
       orient="auto"
       refY="0"
       refX="0"
       id="Arrow1Lend-06"
       style="overflow:visible"
       inkscape:isstock="true">
      <path
         inkscape:connector-curvature="0"
         id="path4853-1"
         d="M 0,0 5,-5 -12.5,0 5,5 Z"
         style="fill:#f2f2f2;fill-opacity:1;fill-rule:evenodd;stroke:#e6e6e6;stroke-width:1.00000003pt;stroke-opacity:1"
         transform="matrix(-0.8,0,0,-0.8,-10,0)" />
    </marker>
    <marker
       inkscape:stockid="Arrow1Lend"
       orient="auto"
       refY="0"
       refX="0"
       id="Arrow1Lend-0-55"
       style="overflow:visible"
       inkscape:isstock="true">
      <path
         inkscape:connector-curvature="0"
         id="path4853-6-4"
         d="M 0,0 5,-5 -12.5,0 5,5 Z"
         style="fill:#f2f2f2;fill-opacity:1;fill-rule:evenodd;stroke:#e6e6e6;stroke-width:1.00000003pt;stroke-opacity:1"
         transform="matrix(-0.8,0,0,-0.8,-10,0)" />
    </marker>
  </defs>
  <sodipodi:namedview
     id="base"
     pagecolor="#ffffff"
     bordercolor="#666666"
     borderopacity="1.0"
     inkscape:pageopacity="0.0"
     inkscape:pageshadow="2"
     inkscape:zoom="1.4"
     inkscape:cx="140.06035"
     inkscape:cy="147.12448"
     inkscape:document-units="mm"
     inkscape:current-layer="layer1"
     showgrid="false"
     inkscape:window-width="1920"
     inkscape:window-height="1198"
     inkscape:window-x="0"
     inkscape:window-y="28"
     inkscape:window-maximized="1"
     fit-margin-top="10"
     fit-margin-left="10"
     fit-margin-right="10"
     fit-margin-bottom="10" />
  <metadata
     id="metadata5">
    <rdf:RDF>
      <cc:Work
         rdf:about="">
        <dc:format>image/svg+xml</dc:format>
        <dc:type
           rdf:resource="http://purl.org/dc/dcmitype/StillImage" />
        <dc:title></dc:title>
      </cc:Work>
    </rdf:RDF>
  </metadata>
  <g
     inkscape:label="Calque 1"
     inkscape:groupmode="layer"
     id="layer1"
     transform="translate(-29.212324,-53.300225)">
    <g
       id="g7284">
      <path
         style="opacity:1;fill:#aad400;fill-opacity:1;stroke:#e6e6e6;stroke-width:0.40000001;stroke-linecap:round;stroke-linejoin:round;stroke-miterlimit:4;stroke-dasharray:none;stroke-dashoffset:0;stroke-opacity:1"
         d="m 105.13118,75.817345 h 44.79018 v 11.150297 h -44.79018 z"
         id="rect4769" />
      <g
         aria-label="10, 20, 30"
         transform="matrix(0.26458333,0,0,0.26458333,55.558741,-7.0303575)"
         style="font-style:normal;font-weight:normal;font-size:13.33333302px;line-height:1.25;font-family:sans-serif;letter-spacing:0px;word-spacing:0px;fill:#ffffff;fill-opacity:1;stroke:none"
         id="flowRoot4771">
        <path
           d="m 206.87956,340.32943 h 4.29687 V 325.4987 l -4.67448,0.9375 v -2.39584 l 4.64844,-0.9375 h 2.63021 v 17.22657 h 4.29687 v 2.21354 h -11.19791 z"
           style="font-size:26.66666794px;fill:#ffffff"
           id="path7325" />
        <path
           d="m 229.01497,324.83464 q -2.03125,0 -3.05989,2.0052 -1.01563,1.99219 -1.01563,6.00261 0,3.99739 1.01563,6.0026 1.02864,1.99219 3.05989,1.99219 2.04428,0 3.0599,-1.99219 1.02865,-2.00521 1.02865,-6.0026 0,-4.01042 -1.02865,-6.00261 -1.01562,-2.0052 -3.0599,-2.0052 z m 0,-2.08334 q 3.26823,0 4.98698,2.59115 1.73178,2.57812 1.73178,7.5 0,4.90885 -1.73178,7.5 -1.71875,2.57812 -4.98698,2.57812 -3.26822,0 -5,-2.57812 -1.71875,-2.59115 -1.71875,-7.5 0,-4.92188 1.71875,-7.5 1.73178,-2.59115 5,-2.59115 z"
           style="font-size:26.66666794px;fill:#ffffff"
           id="path7327" />
        <path
           d="m 240.62956,339.23568 h 2.74739 v 2.23958 l -2.13541,4.16667 h -1.67969 l 1.06771,-4.16667 z"
           style="font-size:26.66666794px;fill:#ffffff"
           id="path7329" />
        <path
           d="m 259.57487,340.32943 h 9.17969 v 2.21354 h -12.34375 v -2.21354 q 1.49739,-1.54948 4.07552,-4.15365 2.59115,-2.61719 3.25521,-3.37239 1.26302,-1.41927 1.75781,-2.39584 0.50781,-0.98958 0.50781,-1.9401 0,-1.54948 -1.09375,-2.52604 -1.08073,-0.97657 -2.82552,-0.97657 -1.23698,0 -2.61719,0.42969 -1.36718,0.42969 -2.92968,1.30208 v -2.65625 q 1.58854,-0.63802 2.96875,-0.96354 1.38021,-0.32552 2.52604,-0.32552 3.02083,0 4.81771,1.51042 1.79687,1.51042 1.79687,4.03646 0,1.19791 -0.45573,2.27864 -0.4427,1.06771 -1.6276,2.52605 -0.32552,0.3776 -2.07031,2.1875 -1.7448,1.79687 -4.92188,5.03906 z"
           style="font-size:26.66666794px;fill:#ffffff"
           id="path7331" />
        <path
           d="m 279.90039,324.83464 q -2.03125,0 -3.05989,2.0052 -1.01563,1.99219 -1.01563,6.00261 0,3.99739 1.01563,6.0026 1.02864,1.99219 3.05989,1.99219 2.04427,0 3.0599,-1.99219 1.02864,-2.00521 1.02864,-6.0026 0,-4.01042 -1.02864,-6.00261 -1.01563,-2.0052 -3.0599,-2.0052 z m 0,-2.08334 q 3.26823,0 4.98698,2.59115 1.73177,2.57812 1.73177,7.5 0,4.90885 -1.73177,7.5 -1.71875,2.57812 -4.98698,2.57812 -3.26823,0 -5,-2.57812 -1.71875,-2.59115 -1.71875,-7.5 0,-4.92188 1.71875,-7.5 1.73177,-2.59115 5,-2.59115 z"
           style="font-size:26.66666794px;fill:#ffffff"
           id="path7333" />
        <path
           d="m 291.51498,339.23568 h 2.74739 v 2.23958 l -2.13541,4.16667 h -1.67969 l 1.06771,-4.16667 z"
           style="font-size:26.66666794px;fill:#ffffff"
           id="path7335" />
        <path
           d="m 316.16341,332.0612 q 1.88803,0.40364 2.94271,1.67969 1.06771,1.27604 1.06771,3.15104 0,2.8776 -1.97917,4.45312 -1.97916,1.57552 -5.625,1.57552 -1.22395,0 -2.52604,-0.24739 -1.28906,-0.23438 -2.66927,-0.71615 v -2.53906 q 1.09375,0.63802 2.39584,0.96354 1.30208,0.32552 2.72135,0.32552 2.47396,0 3.76302,-0.97656 1.30208,-0.97656 1.30208,-2.83854 0,-1.71875 -1.21093,-2.68229 -1.19792,-0.97657 -3.34636,-0.97657 h -2.26562 v -2.16145 h 2.36979 q 1.9401,0 2.96875,-0.76823 1.02864,-0.78125 1.02864,-2.23959 0,-1.49739 -1.0677,-2.29166 -1.05469,-0.8073 -3.03386,-0.8073 -1.08073,0 -2.31771,0.23438 -1.23698,0.23437 -2.72135,0.72917 v -2.34375 q 1.4974,-0.41667 2.79948,-0.625 1.3151,-0.20834 2.47396,-0.20834 2.99479,0 4.73958,1.36719 1.74479,1.35417 1.74479,3.67188 0,1.61458 -0.92448,2.73437 -0.92448,1.10677 -2.63021,1.53646 z"
           style="font-size:26.66666794px;fill:#ffffff"
           id="path7337" />
        <path
           d="m 330.78581,324.83464 q -2.03125,0 -3.05989,2.0052 -1.01563,1.99219 -1.01563,6.00261 0,3.99739 1.01563,6.0026 1.02864,1.99219 3.05989,1.99219 2.04427,0 3.0599,-1.99219 1.02864,-2.00521 1.02864,-6.0026 0,-4.01042 -1.02864,-6.00261 -1.01563,-2.0052 -3.0599,-2.0052 z m 0,-2.08334 q 3.26823,0 4.98698,2.59115 1.73177,2.57812 1.73177,7.5 0,4.90885 -1.73177,7.5 -1.71875,2.57812 -4.98698,2.57812 -3.26823,0 -5,-2.57812 -1.71875,-2.59115 -1.71875,-7.5 0,-4.92188 1.71875,-7.5 1.73177,-2.59115 5,-2.59115 z"
           style="font-size:26.66666794px;fill:#ffffff"
           id="path7339" />
      </g>
      <path
         style="opacity:1;fill:#aad400;fill-opacity:1;stroke:#e6e6e6;stroke-width:0.40000001;stroke-linecap:round;stroke-linejoin:round;stroke-miterlimit:4;stroke-dasharray:none;stroke-dashoffset:0;stroke-opacity:1"
         d="m 105.13118,92.193604 h 44.79018 V 103.3439 h -44.79018 z"
         id="rect4769-3" />
      <g
         aria-label="10, 20, 30"
         transform="matrix(0.26458333,0,0,0.26458333,55.558741,9.345898)"
         style="font-style:normal;font-weight:normal;font-size:13.33333302px;line-height:1.25;font-family:sans-serif;letter-spacing:0px;word-spacing:0px;fill:#ffffff;fill-opacity:1;stroke:none"
         id="flowRoot4771-6">
        <path
           d="m 206.87956,340.32943 h 4.29687 V 325.4987 l -4.67448,0.9375 v -2.39584 l 4.64844,-0.9375 h 2.63021 v 17.22657 h 4.29687 v 2.21354 h -11.19791 z"
           style="font-size:26.66666794px;fill:#ffffff"
           id="path7343" />
        <path
           d="m 229.01497,324.83464 q -2.03125,0 -3.05989,2.0052 -1.01563,1.99219 -1.01563,6.00261 0,3.99739 1.01563,6.0026 1.02864,1.99219 3.05989,1.99219 2.04428,0 3.0599,-1.99219 1.02865,-2.00521 1.02865,-6.0026 0,-4.01042 -1.02865,-6.00261 -1.01562,-2.0052 -3.0599,-2.0052 z m 0,-2.08334 q 3.26823,0 4.98698,2.59115 1.73178,2.57812 1.73178,7.5 0,4.90885 -1.73178,7.5 -1.71875,2.57812 -4.98698,2.57812 -3.26822,0 -5,-2.57812 -1.71875,-2.59115 -1.71875,-7.5 0,-4.92188 1.71875,-7.5 1.73178,-2.59115 5,-2.59115 z"
           style="font-size:26.66666794px;fill:#ffffff"
           id="path7345" />
        <path
           d="m 240.62956,339.23568 h 2.74739 v 2.23958 l -2.13541,4.16667 h -1.67969 l 1.06771,-4.16667 z"
           style="font-size:26.66666794px;fill:#ffffff"
           id="path7347" />
        <path
           d="m 259.57487,340.32943 h 9.17969 v 2.21354 h -12.34375 v -2.21354 q 1.49739,-1.54948 4.07552,-4.15365 2.59115,-2.61719 3.25521,-3.37239 1.26302,-1.41927 1.75781,-2.39584 0.50781,-0.98958 0.50781,-1.9401 0,-1.54948 -1.09375,-2.52604 -1.08073,-0.97657 -2.82552,-0.97657 -1.23698,0 -2.61719,0.42969 -1.36718,0.42969 -2.92968,1.30208 v -2.65625 q 1.58854,-0.63802 2.96875,-0.96354 1.38021,-0.32552 2.52604,-0.32552 3.02083,0 4.81771,1.51042 1.79687,1.51042 1.79687,4.03646 0,1.19791 -0.45573,2.27864 -0.4427,1.06771 -1.6276,2.52605 -0.32552,0.3776 -2.07031,2.1875 -1.7448,1.79687 -4.92188,5.03906 z"
           style="font-size:26.66666794px;fill:#ffffff"
           id="path7349" />
        <path
           d="m 279.90039,324.83464 q -2.03125,0 -3.05989,2.0052 -1.01563,1.99219 -1.01563,6.00261 0,3.99739 1.01563,6.0026 1.02864,1.99219 3.05989,1.99219 2.04427,0 3.0599,-1.99219 1.02864,-2.00521 1.02864,-6.0026 0,-4.01042 -1.02864,-6.00261 -1.01563,-2.0052 -3.0599,-2.0052 z m 0,-2.08334 q 3.26823,0 4.98698,2.59115 1.73177,2.57812 1.73177,7.5 0,4.90885 -1.73177,7.5 -1.71875,2.57812 -4.98698,2.57812 -3.26823,0 -5,-2.57812 -1.71875,-2.59115 -1.71875,-7.5 0,-4.92188 1.71875,-7.5 1.73177,-2.59115 5,-2.59115 z"
           style="font-size:26.66666794px;fill:#ffffff"
           id="path7351" />
        <path
           d="m 291.51498,339.23568 h 2.74739 v 2.23958 l -2.13541,4.16667 h -1.67969 l 1.06771,-4.16667 z"
           style="font-size:26.66666794px;fill:#ffffff"
           id="path7353" />
        <path
           d="m 316.16341,332.0612 q 1.88803,0.40364 2.94271,1.67969 1.06771,1.27604 1.06771,3.15104 0,2.8776 -1.97917,4.45312 -1.97916,1.57552 -5.625,1.57552 -1.22395,0 -2.52604,-0.24739 -1.28906,-0.23438 -2.66927,-0.71615 v -2.53906 q 1.09375,0.63802 2.39584,0.96354 1.30208,0.32552 2.72135,0.32552 2.47396,0 3.76302,-0.97656 1.30208,-0.97656 1.30208,-2.83854 0,-1.71875 -1.21093,-2.68229 -1.19792,-0.97657 -3.34636,-0.97657 h -2.26562 v -2.16145 h 2.36979 q 1.9401,0 2.96875,-0.76823 1.02864,-0.78125 1.02864,-2.23959 0,-1.49739 -1.0677,-2.29166 -1.05469,-0.8073 -3.03386,-0.8073 -1.08073,0 -2.31771,0.23438 -1.23698,0.23437 -2.72135,0.72917 v -2.34375 q 1.4974,-0.41667 2.79948,-0.625 1.3151,-0.20834 2.47396,-0.20834 2.99479,0 4.73958,1.36719 1.74479,1.35417 1.74479,3.67188 0,1.61458 -0.92448,2.73437 -0.92448,1.10677 -2.63021,1.53646 z"
           style="font-size:26.66666794px;fill:#ffffff"
           id="path7355" />
        <path
           d="m 330.78581,324.83464 q -2.03125,0 -3.05989,2.0052 -1.01563,1.99219 -1.01563,6.00261 0,3.99739 1.01563,6.0026 1.02864,1.99219 3.05989,1.99219 2.04427,0 3.0599,-1.99219 1.02864,-2.00521 1.02864,-6.0026 0,-4.01042 -1.02864,-6.00261 -1.01563,-2.0052 -3.0599,-2.0052 z m 0,-2.08334 q 3.26823,0 4.98698,2.59115 1.73177,2.57812 1.73177,7.5 0,4.90885 -1.73177,7.5 -1.71875,2.57812 -4.98698,2.57812 -3.26823,0 -5,-2.57812 -1.71875,-2.59115 -1.71875,-7.5 0,-4.92188 1.71875,-7.5 1.73177,-2.59115 5,-2.59115 z"
           style="font-size:26.66666794px;fill:#ffffff"
           id="path7357" />
      </g>
      <path
         inkscape:connector-curvature="0"
         id="path4848"
         d="m 57.272792,97.768753 c 46.105298,0 46.105298,0 46.105298,0"
         style="fill:#f2f2f2;stroke:#e6e6e6;stroke-width:0.79999995;stroke-linecap:butt;stroke-linejoin:miter;stroke-miterlimit:4;stroke-dasharray:none;stroke-opacity:1;marker-end:url(#Arrow1Lend)" />
      <path
         inkscape:connector-curvature="0"
         id="path4848-2"
         d="m 57.272793,81.392495 c 46.105297,0 46.105297,0 46.105297,0"
         style="fill:#f2f2f2;stroke:#ececec;stroke-width:0.79999995;stroke-linecap:butt;stroke-linejoin:miter;stroke-miterlimit:4;stroke-dasharray:none;stroke-opacity:1;marker-end:url(#Arrow1Lend-0)" />
      <g
         aria-label="list1"
         transform="matrix(0.26458333,0,0,0.26458333,17.49182,-17.406297)"
         style="font-style:normal;font-weight:normal;font-size:26.66666794px;line-height:1.25;font-family:sans-serif;letter-spacing:0px;word-spacing:0px;fill:#f2f2f2;fill-opacity:1;stroke:none"
         id="flowRoot6321">
        <path
           d="m 85.370443,360.13802 h 2.395833 v 20.26042 h -2.395833 z"
           style=""
           id="path7360" />
        <path
           d="m 92.779297,365.8151 h 2.395834 v 14.58334 h -2.395834 z m 0,-5.67708 h 2.395834 v 3.03386 h -2.395834 z"
           style=""
           id="path7362" />
        <path
           d="m 109.48503,366.24479 v 2.26563 q -1.01563,-0.52084 -2.10938,-0.78125 -1.09375,-0.26042 -2.26562,-0.26042 -1.78386,0 -2.68229,0.54688 -0.88542,0.54687 -0.88542,1.64062 0,0.83333 0.63802,1.3151 0.63802,0.46875 2.5651,0.89844 l 0.82032,0.18229 q 2.55208,0.54688 3.61979,1.54948 1.08073,0.98959 1.08073,2.77344 0,2.03125 -1.61459,3.21615 -1.60156,1.18489 -4.41406,1.18489 -1.17187,0 -2.44792,-0.23437 -1.26302,-0.22136 -2.669267,-0.67709 v -2.47395 q 1.328127,0.6901 2.617187,1.04166 1.28906,0.33854 2.55208,0.33854 1.69271,0 2.60417,-0.57291 0.91146,-0.58594 0.91146,-1.64063 0,-0.97656 -0.66406,-1.49739 -0.65104,-0.52084 -2.87761,-1.00261 l -0.83333,-0.19531 q -2.22656,-0.46875 -3.21615,-1.43229 -0.98958,-0.97656 -0.98958,-2.66927 0,-2.05729 1.45833,-3.17709 1.45834,-1.11979 4.14063,-1.11979 1.32812,0 2.5,0.19531 1.17187,0.19532 2.16146,0.58594 z"
           style=""
           id="path7364" />
        <path
           d="m 116.45117,361.67448 v 4.14062 h 4.9349 v 1.86198 h -4.9349 v 7.91667 q 0,1.78386 0.48177,2.29167 0.49479,0.50781 1.99219,0.50781 h 2.46094 v 2.00521 h -2.46094 q -2.77344,0 -3.82812,-1.02865 -1.05469,-1.04166 -1.05469,-3.77604 v -7.91667 h -1.75781 v -1.86198 h 1.75781 v -4.14062 z"
           style=""
           id="path7366" />
        <path
           d="m 125.33138,378.1849 h 4.29688 v -14.83073 l -4.67448,0.9375 v -2.39584 l 4.64844,-0.9375 h 2.6302 v 17.22657 h 4.29688 v 2.21354 h -11.19792 z"
           style=""
           id="path7368" />
      </g>
      <g
         aria-label="list2"
         transform="matrix(0.26458333,0,0,0.26458333,17.49182,-1.0300388)"
         style="font-style:normal;font-weight:normal;font-size:26.66666794px;line-height:1.25;font-family:sans-serif;letter-spacing:0px;word-spacing:0px;fill:#f2f2f2;fill-opacity:1;stroke:none"
         id="flowRoot6321-6">
        <path
           d="m 85.370443,360.13802 h 2.395833 v 20.26042 h -2.395833 z"
           style=""
           id="path7371" />
        <path
           d="m 92.779297,365.8151 h 2.395834 v 14.58334 h -2.395834 z m 0,-5.67708 h 2.395834 v 3.03386 h -2.395834 z"
           style=""
           id="path7373" />
        <path
           d="m 109.48503,366.24479 v 2.26563 q -1.01563,-0.52084 -2.10938,-0.78125 -1.09375,-0.26042 -2.26562,-0.26042 -1.78386,0 -2.68229,0.54688 -0.88542,0.54687 -0.88542,1.64062 0,0.83333 0.63802,1.3151 0.63802,0.46875 2.5651,0.89844 l 0.82032,0.18229 q 2.55208,0.54688 3.61979,1.54948 1.08073,0.98959 1.08073,2.77344 0,2.03125 -1.61459,3.21615 -1.60156,1.18489 -4.41406,1.18489 -1.17187,0 -2.44792,-0.23437 -1.26302,-0.22136 -2.669267,-0.67709 v -2.47395 q 1.328127,0.6901 2.617187,1.04166 1.28906,0.33854 2.55208,0.33854 1.69271,0 2.60417,-0.57291 0.91146,-0.58594 0.91146,-1.64063 0,-0.97656 -0.66406,-1.49739 -0.65104,-0.52084 -2.87761,-1.00261 l -0.83333,-0.19531 q -2.22656,-0.46875 -3.21615,-1.43229 -0.98958,-0.97656 -0.98958,-2.66927 0,-2.05729 1.45833,-3.17709 1.45834,-1.11979 4.14063,-1.11979 1.32812,0 2.5,0.19531 1.17187,0.19532 2.16146,0.58594 z"
           style=""
           id="path7375" />
        <path
           d="m 116.45117,361.67448 v 4.14062 h 4.9349 v 1.86198 h -4.9349 v 7.91667 q 0,1.78386 0.48177,2.29167 0.49479,0.50781 1.99219,0.50781 h 2.46094 v 2.00521 h -2.46094 q -2.77344,0 -3.82812,-1.02865 -1.05469,-1.04166 -1.05469,-3.77604 v -7.91667 h -1.75781 v -1.86198 h 1.75781 v -4.14062 z"
           style=""
           id="path7377" />
        <path
           d="m 127.14128,378.1849 h 9.17969 v 2.21354 h -12.34376 v -2.21354 q 1.4974,-1.54948 4.07553,-4.15365 2.59114,-2.61719 3.2552,-3.3724 1.26303,-1.41927 1.75782,-2.39583 0.50781,-0.98958 0.50781,-1.9401 0,-1.54948 -1.09375,-2.52604 -1.08073,-0.97657 -2.82552,-0.97657 -1.23698,0 -2.61719,0.42969 -1.36719,0.42969 -2.92969,1.30208 v -2.65625 q 1.58854,-0.63802 2.96875,-0.96354 1.38021,-0.32552 2.52605,-0.32552 3.02083,0 4.8177,1.51042 1.79688,1.51041 1.79688,4.03646 0,1.19791 -0.45573,2.27864 -0.44271,1.06771 -1.6276,2.52604 -0.32553,0.37761 -2.07032,2.1875 -1.74479,1.79688 -4.92187,5.03907 z"
           style=""
           id="path7379" />
      </g>
    </g>
    <g
       aria-label="Parameter passing by value"
       transform="matrix(0.26458333,0,0,0.26458333,23.806029,-31.986292)"
       style="font-style:normal;font-weight:normal;font-size:26.66666794px;line-height:1.25;font-family:sans-serif;letter-spacing:0px;word-spacing:0px;fill:#f2f2f2;fill-opacity:1;stroke:none"
       id="flowRoot6321-9">
      <path
         d="m 88.104818,363.11979 v 7.30469 h 3.307292 q 1.835937,0 2.838542,-0.95052 1.002604,-0.95052 1.002604,-2.70833 0,-1.7448 -1.002604,-2.69532 -1.002605,-0.95052 -2.838542,-0.95052 z m -2.630209,-2.16146 h 5.937501 q 3.268229,0 4.934896,1.48438 1.679687,1.47135 1.679687,4.32292 0,2.8776 -1.679687,4.34895 -1.666667,1.47136 -4.934896,1.47136 h -3.307292 v 7.8125 h -2.630209 z"
         style=""
         id="path7382" />
      <path
         d="m 106.88086,373.06771 q -2.90365,0 -4.02344,0.66406 -1.11979,0.66406 -1.11979,2.26563 0,1.27604 0.83333,2.03125 0.84636,0.74218 2.29167,0.74218 1.99219,0 3.19011,-1.40625 1.21093,-1.41927 1.21093,-3.76302 v -0.53385 z m 4.77865,-0.98958 v 8.32031 h -2.39584 v -2.21354 q -0.82031,1.32812 -2.04427,1.96614 -1.22396,0.625 -2.99479,0.625 -2.23958,0 -3.56771,-1.25 -1.315102,-1.26302 -1.315102,-3.37239 0,-2.46094 1.640622,-3.71094 1.65365,-1.25 4.92188,-1.25 h 3.35937 v -0.23438 q 0,-1.65364 -1.09375,-2.55208 -1.08073,-0.91146 -3.04687,-0.91146 -1.25,0 -2.4349,0.29948 -1.18489,0.29948 -2.27864,0.89844 v -2.21354 q 1.3151,-0.50782 2.55208,-0.75521 1.23698,-0.26042 2.40885,-0.26042 3.16407,0 4.72657,1.64063 1.5625,1.64062 1.5625,4.97396 z"
         style=""
         id="path7384" />
      <path
         d="m 125.04492,368.05469 q -0.40364,-0.23438 -0.88541,-0.33854 -0.46875,-0.11719 -1.04167,-0.11719 -2.03125,0 -3.125,1.32812 -1.08073,1.31511 -1.08073,3.78907 v 7.68229 h -2.40885 V 365.8151 h 2.40885 v 2.26563 q 0.75521,-1.32813 1.96615,-1.96615 1.21094,-0.65104 2.94271,-0.65104 0.24739,0 0.54687,0.0391 0.29948,0.0261 0.66406,0.0912 z"
         style=""
         id="path7386" />
      <path
         d="m 134.18555,373.06771 q -2.90365,0 -4.02344,0.66406 -1.11979,0.66406 -1.11979,2.26563 0,1.27604 0.83333,2.03125 0.84636,0.74218 2.29167,0.74218 1.99219,0 3.1901,-1.40625 1.21094,-1.41927 1.21094,-3.76302 v -0.53385 z m 4.77864,-0.98958 v 8.32031 h -2.39583 v -2.21354 q -0.82031,1.32812 -2.04427,1.96614 -1.22396,0.625 -2.99479,0.625 -2.23959,0 -3.56771,-1.25 -1.31511,-1.26302 -1.31511,-3.37239 0,-2.46094 1.64063,-3.71094 1.65365,-1.25 4.92187,-1.25 h 3.35938 v -0.23438 q 0,-1.65364 -1.09375,-2.55208 -1.08073,-0.91146 -3.04688,-0.91146 -1.25,0 -2.43489,0.29948 -1.1849,0.29948 -2.27865,0.89844 v -2.21354 q 1.31511,-0.50782 2.55209,-0.75521 1.23698,-0.26042 2.40885,-0.26042 3.16406,0 4.72656,1.64063 1.5625,1.64062 1.5625,4.97396 z"
         style=""
         id="path7388" />
      <path
         d="m 155.25326,368.61458 q 0.89844,-1.61458 2.14844,-2.38281 1.25,-0.76823 2.9427,-0.76823 2.27865,0 3.51563,1.60156 1.23698,1.58855 1.23698,4.53125 v 8.80209 h -2.40886 v -8.72396 q 0,-2.09635 -0.74218,-3.11198 -0.74219,-1.01562 -2.26563,-1.01562 -1.86198,0 -2.94271,1.23697 -1.08073,1.23698 -1.08073,3.3724 v 8.24219 h -2.40885 v -8.72396 q 0,-2.10938 -0.74219,-3.11198 -0.74219,-1.01562 -2.29166,-1.01562 -1.83594,0 -2.91667,1.25 -1.08073,1.23697 -1.08073,3.35937 v 8.24219 h -2.40885 V 365.8151 h 2.40885 v 2.26563 q 0.82031,-1.34115 1.96615,-1.97917 1.14583,-0.63802 2.72135,-0.63802 1.58854,0 2.69531,0.80729 1.11979,0.8073 1.65365,2.34375 z"
         style=""
         id="path7390" />
      <path
         d="m 182.34961,372.50781 v 1.17188 h -11.01562 q 0.15625,2.47396 1.48437,3.77604 1.34115,1.28906 3.72396,1.28906 1.38021,0 2.66927,-0.33854 1.30209,-0.33854 2.57813,-1.01562 v 2.26562 q -1.28907,0.54688 -2.64323,0.83333 -1.35417,0.28646 -2.7474,0.28646 -3.48958,0 -5.53385,-2.03125 -2.03125,-2.03125 -2.03125,-5.49479 0,-3.58073 1.92708,-5.67708 1.9401,-2.10938 5.22135,-2.10938 2.94271,0 4.64844,1.90104 1.71875,1.88802 1.71875,5.14323 z m -2.39583,-0.70312 q -0.026,-1.96615 -1.10677,-3.13802 -1.06771,-1.17188 -2.83854,-1.17188 -2.00521,0 -3.21615,1.13281 -1.19792,1.13282 -1.38021,3.19011 z"
         style=""
         id="path7392" />
      <path
         d="m 188.6517,361.67448 v 4.14062 h 4.93489 v 1.86198 h -4.93489 v 7.91667 q 0,1.78386 0.48177,2.29167 0.49479,0.50781 1.99218,0.50781 h 2.46094 v 2.00521 h -2.46094 q -2.77343,0 -3.82812,-1.02865 -1.05469,-1.04166 -1.05469,-3.77604 v -7.91667 h -1.75781 v -1.86198 h 1.75781 v -4.14062 z"
         style=""
         id="path7394" />
      <path
         d="m 209.2116,372.50781 v 1.17188 h -11.01563 q 0.15625,2.47396 1.48438,3.77604 1.34114,1.28906 3.72395,1.28906 1.38021,0 2.66928,-0.33854 1.30208,-0.33854 2.57812,-1.01562 v 2.26562 q -1.28906,0.54688 -2.64323,0.83333 -1.35416,0.28646 -2.74739,0.28646 -3.48959,0 -5.53386,-2.03125 -2.03125,-2.03125 -2.03125,-5.49479 0,-3.58073 1.92708,-5.67708 1.94011,-2.10938 5.22136,-2.10938 2.94271,0 4.64844,1.90104 1.71875,1.88802 1.71875,5.14323 z m -2.39584,-0.70312 q -0.026,-1.96615 -1.10677,-3.13802 -1.06771,-1.17188 -2.83854,-1.17188 -2.00521,0 -3.21615,1.13281 -1.19791,1.13282 -1.3802,3.19011 z"
         style=""
         id="path7396" />
      <path
         d="m 221.59441,368.05469 q -0.40365,-0.23438 -0.88542,-0.33854 -0.46875,-0.11719 -1.04166,-0.11719 -2.03125,0 -3.125,1.32812 -1.08073,1.31511 -1.08073,3.78907 v 7.68229 h -2.40886 V 365.8151 h 2.40886 v 2.26563 q 0.7552,-1.32813 1.96614,-1.96615 1.21094,-0.65104 2.94271,-0.65104 0.2474,0 0.54688,0.0391 0.29948,0.0261 0.66406,0.0912 z"
         style=""
         id="path7398" />
      <path
         d="m 234.9017,378.21094 v 7.73437 h -2.40886 V 365.8151 h 2.40886 v 2.21355 q 0.75521,-1.30209 1.90104,-1.92709 1.15885,-0.63802 2.76042,-0.63802 2.65625,0 4.30989,2.10938 1.66667,2.10937 1.66667,5.54687 0,3.4375 -1.66667,5.54688 -1.65364,2.10937 -4.30989,2.10937 -1.60157,0 -2.76042,-0.625 -1.14583,-0.63802 -1.90104,-1.9401 z m 8.15104,-5.09115 q 0,-2.64323 -1.09375,-4.14062 -1.08073,-1.51042 -2.98177,-1.51042 -1.90104,0 -2.99479,1.51042 -1.08073,1.49739 -1.08073,4.14062 0,2.64323 1.08073,4.15365 1.09375,1.49739 2.99479,1.49739 1.90104,0 2.98177,-1.49739 1.09375,-1.51042 1.09375,-4.15365 z"
         style=""
         id="path7400" />
      <path
         d="m 256.13867,373.06771 q -2.90364,0 -4.02344,0.66406 -1.11979,0.66406 -1.11979,2.26563 0,1.27604 0.83334,2.03125 0.84635,0.74218 2.29166,0.74218 1.99219,0 3.19011,-1.40625 1.21093,-1.41927 1.21093,-3.76302 v -0.53385 z m 4.77865,-0.98958 v 8.32031 h -2.39584 v -2.21354 q -0.82031,1.32812 -2.04427,1.96614 -1.22395,0.625 -2.99479,0.625 -2.23958,0 -3.56771,-1.25 -1.3151,-1.26302 -1.3151,-3.37239 0,-2.46094 1.64062,-3.71094 1.65365,-1.25 4.92188,-1.25 h 3.35937 v -0.23438 q 0,-1.65364 -1.09375,-2.55208 -1.08072,-0.91146 -3.04687,-0.91146 -1.25,0 -2.4349,0.29948 -1.18489,0.29948 -2.27864,0.89844 v -2.21354 q 1.3151,-0.50782 2.55208,-0.75521 1.23698,-0.26042 2.40886,-0.26042 3.16406,0 4.72656,1.64063 1.5625,1.64062 1.5625,4.97396 z"
         style=""
         id="path7402" />
      <path
         d="m 275.1491,366.24479 v 2.26563 q -1.01563,-0.52084 -2.10938,-0.78125 -1.09375,-0.26042 -2.26562,-0.26042 -1.78386,0 -2.68229,0.54688 -0.88542,0.54687 -0.88542,1.64062 0,0.83333 0.63802,1.3151 0.63802,0.46875 2.56511,0.89844 l 0.82031,0.18229 q 2.55208,0.54688 3.61979,1.54948 1.08073,0.98959 1.08073,2.77344 0,2.03125 -1.61458,3.21615 -1.60157,1.18489 -4.41407,1.18489 -1.17187,0 -2.44791,-0.23437 -1.26302,-0.22136 -2.66927,-0.67709 v -2.47395 q 1.32812,0.6901 2.61718,1.04166 1.28907,0.33854 2.55209,0.33854 1.6927,0 2.60416,-0.57291 0.91146,-0.58594 0.91146,-1.64063 0,-0.97656 -0.66406,-1.49739 -0.65104,-0.52084 -2.87761,-1.00261 l -0.83333,-0.19531 q -2.22656,-0.46875 -3.21614,-1.43229 -0.98959,-0.97656 -0.98959,-2.66927 0,-2.05729 1.45834,-3.17709 1.45833,-1.11979 4.14062,-1.11979 1.32813,0 2.5,0.19531 1.17188,0.19532 2.16146,0.58594 z"
         style=""
         id="path7404" />
      <path
         d="m 289.04232,366.24479 v 2.26563 q -1.01563,-0.52084 -2.10938,-0.78125 -1.09375,-0.26042 -2.26562,-0.26042 -1.78386,0 -2.68229,0.54688 -0.88542,0.54687 -0.88542,1.64062 0,0.83333 0.63802,1.3151 0.63802,0.46875 2.5651,0.89844 l 0.82032,0.18229 q 2.55208,0.54688 3.61979,1.54948 1.08073,0.98959 1.08073,2.77344 0,2.03125 -1.61459,3.21615 -1.60156,1.18489 -4.41406,1.18489 -1.17187,0 -2.44791,-0.23437 -1.26303,-0.22136 -2.66928,-0.67709 v -2.47395 q 1.32813,0.6901 2.61719,1.04166 1.28906,0.33854 2.55209,0.33854 1.6927,0 2.60416,-0.57291 0.91146,-0.58594 0.91146,-1.64063 0,-0.97656 -0.66406,-1.49739 -0.65104,-0.52084 -2.87761,-1.00261 l -0.83333,-0.19531 q -2.22656,-0.46875 -3.21615,-1.43229 -0.98958,-0.97656 -0.98958,-2.66927 0,-2.05729 1.45833,-3.17709 1.45834,-1.11979 4.14063,-1.11979 1.32812,0 2.5,0.19531 1.17187,0.19532 2.16146,0.58594 z"
         style=""
         id="path7406" />
      <path
         d="m 293.63868,365.8151 h 2.39583 v 14.58334 h -2.39583 z m 0,-5.67708 h 2.39583 v 3.03386 h -2.39583 z"
         style=""
         id="path7408" />
      <path
         d="m 313.16993,371.59635 v 8.80209 h -2.39583 v -8.72396 q 0,-2.07031 -0.80729,-3.09896 -0.80729,-1.02864 -2.42188,-1.02864 -1.9401,0 -3.05989,1.23697 -1.1198,1.23698 -1.1198,3.3724 v 8.24219 h -2.40885 V 365.8151 h 2.40885 v 2.26563 q 0.85938,-1.3151 2.01823,-1.96615 1.17188,-0.65104 2.69532,-0.65104 2.51302,0 3.80208,1.5625 1.28906,1.54948 1.28906,4.57031 z"
         style=""
         id="path7410" />
      <path
         d="m 327.54494,372.9375 q 0,-2.60417 -1.08073,-4.03646 -1.06771,-1.43229 -3.00781,-1.43229 -1.92709,0 -3.00782,1.43229 -1.06771,1.43229 -1.06771,4.03646 0,2.59115 1.06771,4.02344 1.08073,1.43229 3.00782,1.43229 1.9401,0 3.00781,-1.43229 1.08073,-1.43229 1.08073,-4.02344 z m 2.39583,5.65104 q 0,3.72396 -1.65364,5.53386 -1.65365,1.82291 -5.06511,1.82291 -1.26302,0 -2.38281,-0.19531 -1.11979,-0.18229 -2.17448,-0.57292 v -2.33072 q 1.05469,0.57291 2.08333,0.84635 1.02865,0.27344 2.09636,0.27344 2.35677,0 3.52864,-1.23698 1.17188,-1.22396 1.17188,-3.71094 v -1.1849 q -0.74219,1.28907 -1.90104,1.92709 -1.15886,0.63802 -2.77344,0.63802 -2.68229,0 -4.32292,-2.04427 -1.64062,-2.04427 -1.64062,-5.41667 0,-3.38542 1.64062,-5.42969 1.64063,-2.04427 4.32292,-2.04427 1.61458,0 2.77344,0.63802 1.15885,0.63802 1.90104,1.92709 v -2.21355 h 2.39583 z"
         style=""
         id="path7412" />
      <path
         d="m 353.82097,373.11979 q 0,-2.64323 -1.09375,-4.14062 -1.08072,-1.51042 -2.98177,-1.51042 -1.90104,0 -2.99479,1.51042 -1.08073,1.49739 -1.08073,4.14062 0,2.64323 1.08073,4.15365 1.09375,1.49739 2.99479,1.49739 1.90105,0 2.98177,-1.49739 1.09375,-1.51042 1.09375,-4.15365 z m -8.15104,-5.09114 q 0.75521,-1.30209 1.90104,-1.92709 1.15886,-0.63802 2.76042,-0.63802 2.65625,0 4.3099,2.10938 1.66666,2.10937 1.66666,5.54687 0,3.4375 -1.66666,5.54688 -1.65365,2.10937 -4.3099,2.10937 -1.60156,0 -2.76042,-0.625 -1.14583,-0.63802 -1.90104,-1.9401 v 2.1875 h -2.40885 v -20.26042 h 2.40885 z"
         style=""
         id="path7414" />
      <path
         d="m 366.34703,381.75261 q -1.01563,2.60416 -1.97917,3.39843 -0.96354,0.79427 -2.57813,0.79427 h -1.91406 v -2.0052 h 1.40625 q 0.98958,0 1.53646,-0.46875 0.54687,-0.46875 1.21094,-2.21355 l 0.42969,-1.09375 -5.89844,-14.34896 h 2.53906 l 4.55729,11.40626 4.55729,-11.40626 h 2.53907 z"
         style=""
         id="path7416" />
      <path
         d="m 382.81838,365.8151 h 2.53906 l 4.55729,12.23959 4.5573,-12.23959 h 2.53906 l -5.46875,14.58334 h -3.25521 z"
         style=""
         id="path7418" />
      <path
         d="m 406.94598,373.06771 q -2.90364,0 -4.02343,0.66406 -1.1198,0.66406 -1.1198,2.26563 0,1.27604 0.83334,2.03125 0.84635,0.74218 2.29167,0.74218 1.99218,0 3.1901,-1.40625 1.21094,-1.41927 1.21094,-3.76302 v -0.53385 z m 4.77865,-0.98958 v 8.32031 h -2.39583 v -2.21354 q -0.82032,1.32812 -2.04427,1.96614 -1.22396,0.625 -2.9948,0.625 -2.23958,0 -3.5677,-1.25 -1.31511,-1.26302 -1.31511,-3.37239 0,-2.46094 1.64063,-3.71094 1.65364,-1.25 4.92187,-1.25 h 3.35938 v -0.23438 q 0,-1.65364 -1.09375,-2.55208 -1.08073,-0.91146 -3.04688,-0.91146 -1.25,0 -2.43489,0.29948 -1.1849,0.29948 -2.27865,0.89844 v -2.21354 q 1.3151,-0.50782 2.55208,-0.75521 1.23698,-0.26042 2.40886,-0.26042 3.16406,0 4.72656,1.64063 1.5625,1.64062 1.5625,4.97396 z"
         style=""
         id="path7420" />
      <path
         d="m 416.65951,360.13802 h 2.39583 v 20.26042 h -2.39583 z"
         style=""
         id="path7422" />
      <path
         d="m 423.82098,374.64323 v -8.82813 h 2.39584 v 8.73698 q 0,2.07032 0.80729,3.11198 0.80729,1.02865 2.42187,1.02865 1.94011,0 3.0599,-1.23698 1.13281,-1.23698 1.13281,-3.3724 v -8.26823 h 2.39584 v 14.58334 h -2.39584 v -2.23958 q -0.87239,1.32812 -2.03125,1.97916 -1.14583,0.63802 -2.66927,0.63802 -2.51302,0 -3.8151,-1.5625 -1.30209,-1.5625 -1.30209,-4.57031 z m 6.02865,-9.17969 z"
         style=""
         id="path7424" />
      <path
         d="m 453.44337,372.50781 v 1.17188 h -11.01563 q 0.15625,2.47396 1.48438,3.77604 1.34115,1.28906 3.72396,1.28906 1.38021,0 2.66927,-0.33854 1.30208,-0.33854 2.57812,-1.01562 v 2.26562 q -1.28906,0.54688 -2.64322,0.83333 -1.35417,0.28646 -2.7474,0.28646 -3.48958,0 -5.53386,-2.03125 -2.03125,-2.03125 -2.03125,-5.49479 0,-3.58073 1.92709,-5.67708 1.9401,-2.10938 5.22135,-2.10938 2.94271,0 4.64844,1.90104 1.71875,1.88802 1.71875,5.14323 z m -2.39583,-0.70312 q -0.026,-1.96615 -1.10677,-3.13802 -1.06771,-1.17188 -2.83855,-1.17188 -2.0052,0 -3.21614,1.13281 -1.19792,1.13282 -1.38021,3.19011 z"
         style=""
         id="path7426" />
    </g>
    <g
       id="g7262">
      <path
         style="opacity:1;fill:#aad400;fill-opacity:1;stroke:#e6e6e6;stroke-width:0.40000001;stroke-linecap:round;stroke-linejoin:round;stroke-miterlimit:4;stroke-dasharray:none;stroke-dashoffset:0;stroke-opacity:1"
         d="m 105.13118,136.99527 h 44.79018 v 11.1503 h -44.79018 z"
         id="rect4769-6" />
      <g
         aria-label="10, 20, 30"
         transform="matrix(0.26458333,0,0,0.26458333,55.558741,54.147572)"
         style="font-style:normal;font-weight:normal;font-size:13.33333302px;line-height:1.25;font-family:sans-serif;letter-spacing:0px;word-spacing:0px;fill:#ffffff;fill-opacity:1;stroke:none"
         id="flowRoot4771-5">
        <path
           d="m 206.87956,340.32943 h 4.29687 V 325.4987 l -4.67448,0.9375 v -2.39584 l 4.64844,-0.9375 h 2.63021 v 17.22657 h 4.29687 v 2.21354 h -11.19791 z"
           style="font-size:26.66666794px;fill:#ffffff"
           id="path7430" />
        <path
           d="m 229.01497,324.83464 q -2.03125,0 -3.05989,2.0052 -1.01563,1.99219 -1.01563,6.00261 0,3.99739 1.01563,6.0026 1.02864,1.99219 3.05989,1.99219 2.04428,0 3.0599,-1.99219 1.02865,-2.00521 1.02865,-6.0026 0,-4.01042 -1.02865,-6.00261 -1.01562,-2.0052 -3.0599,-2.0052 z m 0,-2.08334 q 3.26823,0 4.98698,2.59115 1.73178,2.57812 1.73178,7.5 0,4.90885 -1.73178,7.5 -1.71875,2.57812 -4.98698,2.57812 -3.26822,0 -5,-2.57812 -1.71875,-2.59115 -1.71875,-7.5 0,-4.92188 1.71875,-7.5 1.73178,-2.59115 5,-2.59115 z"
           style="font-size:26.66666794px;fill:#ffffff"
           id="path7432" />
        <path
           d="m 240.62956,339.23568 h 2.74739 v 2.23958 l -2.13541,4.16667 h -1.67969 l 1.06771,-4.16667 z"
           style="font-size:26.66666794px;fill:#ffffff"
           id="path7434" />
        <path
           d="m 259.57487,340.32943 h 9.17969 v 2.21354 h -12.34375 v -2.21354 q 1.49739,-1.54948 4.07552,-4.15365 2.59115,-2.61719 3.25521,-3.37239 1.26302,-1.41927 1.75781,-2.39584 0.50781,-0.98958 0.50781,-1.9401 0,-1.54948 -1.09375,-2.52604 -1.08073,-0.97657 -2.82552,-0.97657 -1.23698,0 -2.61719,0.42969 -1.36718,0.42969 -2.92968,1.30208 v -2.65625 q 1.58854,-0.63802 2.96875,-0.96354 1.38021,-0.32552 2.52604,-0.32552 3.02083,0 4.81771,1.51042 1.79687,1.51042 1.79687,4.03646 0,1.19791 -0.45573,2.27864 -0.4427,1.06771 -1.6276,2.52605 -0.32552,0.3776 -2.07031,2.1875 -1.7448,1.79687 -4.92188,5.03906 z"
           style="font-size:26.66666794px;fill:#ffffff"
           id="path7436" />
        <path
           d="m 279.90039,324.83464 q -2.03125,0 -3.05989,2.0052 -1.01563,1.99219 -1.01563,6.00261 0,3.99739 1.01563,6.0026 1.02864,1.99219 3.05989,1.99219 2.04427,0 3.0599,-1.99219 1.02864,-2.00521 1.02864,-6.0026 0,-4.01042 -1.02864,-6.00261 -1.01563,-2.0052 -3.0599,-2.0052 z m 0,-2.08334 q 3.26823,0 4.98698,2.59115 1.73177,2.57812 1.73177,7.5 0,4.90885 -1.73177,7.5 -1.71875,2.57812 -4.98698,2.57812 -3.26823,0 -5,-2.57812 -1.71875,-2.59115 -1.71875,-7.5 0,-4.92188 1.71875,-7.5 1.73177,-2.59115 5,-2.59115 z"
           style="font-size:26.66666794px;fill:#ffffff"
           id="path7438" />
        <path
           d="m 291.51498,339.23568 h 2.74739 v 2.23958 l -2.13541,4.16667 h -1.67969 l 1.06771,-4.16667 z"
           style="font-size:26.66666794px;fill:#ffffff"
           id="path7440" />
        <path
           d="m 316.16341,332.0612 q 1.88803,0.40364 2.94271,1.67969 1.06771,1.27604 1.06771,3.15104 0,2.8776 -1.97917,4.45312 -1.97916,1.57552 -5.625,1.57552 -1.22395,0 -2.52604,-0.24739 -1.28906,-0.23438 -2.66927,-0.71615 v -2.53906 q 1.09375,0.63802 2.39584,0.96354 1.30208,0.32552 2.72135,0.32552 2.47396,0 3.76302,-0.97656 1.30208,-0.97656 1.30208,-2.83854 0,-1.71875 -1.21093,-2.68229 -1.19792,-0.97657 -3.34636,-0.97657 h -2.26562 v -2.16145 h 2.36979 q 1.9401,0 2.96875,-0.76823 1.02864,-0.78125 1.02864,-2.23959 0,-1.49739 -1.0677,-2.29166 -1.05469,-0.8073 -3.03386,-0.8073 -1.08073,0 -2.31771,0.23438 -1.23698,0.23437 -2.72135,0.72917 v -2.34375 q 1.4974,-0.41667 2.79948,-0.625 1.3151,-0.20834 2.47396,-0.20834 2.99479,0 4.73958,1.36719 1.74479,1.35417 1.74479,3.67188 0,1.61458 -0.92448,2.73437 -0.92448,1.10677 -2.63021,1.53646 z"
           style="font-size:26.66666794px;fill:#ffffff"
           id="path7442" />
        <path
           d="m 330.78581,324.83464 q -2.03125,0 -3.05989,2.0052 -1.01563,1.99219 -1.01563,6.00261 0,3.99739 1.01563,6.0026 1.02864,1.99219 3.05989,1.99219 2.04427,0 3.0599,-1.99219 1.02864,-2.00521 1.02864,-6.0026 0,-4.01042 -1.02864,-6.00261 -1.01563,-2.0052 -3.0599,-2.0052 z m 0,-2.08334 q 3.26823,0 4.98698,2.59115 1.73177,2.57812 1.73177,7.5 0,4.90885 -1.73177,7.5 -1.71875,2.57812 -4.98698,2.57812 -3.26823,0 -5,-2.57812 -1.71875,-2.59115 -1.71875,-7.5 0,-4.92188 1.71875,-7.5 1.73177,-2.59115 5,-2.59115 z"
           style="font-size:26.66666794px;fill:#ffffff"
           id="path7444" />
      </g>
      <path
         sodipodi:nodetypes="cc"
         inkscape:connector-curvature="0"
         id="path4848-7"
         d="M 57.272792,158.94668 103.37809,142.57042"
         style="fill:#f2f2f2;stroke:#e6e6e6;stroke-width:0.79999995;stroke-linecap:butt;stroke-linejoin:miter;stroke-miterlimit:4;stroke-dasharray:none;stroke-opacity:1;marker-end:url(#Arrow1Lend-06)" />
      <path
         inkscape:connector-curvature="0"
         id="path4848-2-4"
         d="m 57.272793,142.57042 c 46.105297,0 46.105297,0 46.105297,0"
         style="fill:#f2f2f2;stroke:#ececec;stroke-width:0.79999995;stroke-linecap:butt;stroke-linejoin:miter;stroke-miterlimit:4;stroke-dasharray:none;stroke-opacity:1;marker-end:url(#Arrow1Lend-0-55)" />
      <g
         aria-label="list1"
         transform="matrix(0.26458333,0,0,0.26458333,17.49182,43.771633)"
         style="font-style:normal;font-weight:normal;font-size:26.66666794px;line-height:1.25;font-family:sans-serif;letter-spacing:0px;word-spacing:0px;fill:#f2f2f2;fill-opacity:1;stroke:none"
         id="flowRoot6321-4">
        <path
           d="m 85.370443,360.13802 h 2.395833 v 20.26042 h -2.395833 z"
           style=""
           id="path7447" />
        <path
           d="m 92.779297,365.8151 h 2.395834 v 14.58334 h -2.395834 z m 0,-5.67708 h 2.395834 v 3.03386 h -2.395834 z"
           style=""
           id="path7449" />
        <path
           d="m 109.48503,366.24479 v 2.26563 q -1.01563,-0.52084 -2.10938,-0.78125 -1.09375,-0.26042 -2.26562,-0.26042 -1.78386,0 -2.68229,0.54688 -0.88542,0.54687 -0.88542,1.64062 0,0.83333 0.63802,1.3151 0.63802,0.46875 2.5651,0.89844 l 0.82032,0.18229 q 2.55208,0.54688 3.61979,1.54948 1.08073,0.98959 1.08073,2.77344 0,2.03125 -1.61459,3.21615 -1.60156,1.18489 -4.41406,1.18489 -1.17187,0 -2.44792,-0.23437 -1.26302,-0.22136 -2.669267,-0.67709 v -2.47395 q 1.328127,0.6901 2.617187,1.04166 1.28906,0.33854 2.55208,0.33854 1.69271,0 2.60417,-0.57291 0.91146,-0.58594 0.91146,-1.64063 0,-0.97656 -0.66406,-1.49739 -0.65104,-0.52084 -2.87761,-1.00261 l -0.83333,-0.19531 q -2.22656,-0.46875 -3.21615,-1.43229 -0.98958,-0.97656 -0.98958,-2.66927 0,-2.05729 1.45833,-3.17709 1.45834,-1.11979 4.14063,-1.11979 1.32812,0 2.5,0.19531 1.17187,0.19532 2.16146,0.58594 z"
           style=""
           id="path7451" />
        <path
           d="m 116.45117,361.67448 v 4.14062 h 4.9349 v 1.86198 h -4.9349 v 7.91667 q 0,1.78386 0.48177,2.29167 0.49479,0.50781 1.99219,0.50781 h 2.46094 v 2.00521 h -2.46094 q -2.77344,0 -3.82812,-1.02865 -1.05469,-1.04166 -1.05469,-3.77604 v -7.91667 h -1.75781 v -1.86198 h 1.75781 v -4.14062 z"
           style=""
           id="path7453" />
        <path
           d="m 125.33138,378.1849 h 4.29688 v -14.83073 l -4.67448,0.9375 v -2.39584 l 4.64844,-0.9375 h 2.6302 v 17.22657 h 4.29688 v 2.21354 h -11.19792 z"
           style=""
           id="path7455" />
      </g>
      <g
         aria-label="list2"
         transform="matrix(0.26458333,0,0,0.26458333,17.49182,60.147891)"
         style="font-style:normal;font-weight:normal;font-size:26.66666794px;line-height:1.25;font-family:sans-serif;letter-spacing:0px;word-spacing:0px;fill:#f2f2f2;fill-opacity:1;stroke:none"
         id="flowRoot6321-6-6">
        <path
           d="m 85.370443,360.13802 h 2.395833 v 20.26042 h -2.395833 z"
           style=""
           id="path7458" />
        <path
           d="m 92.779297,365.8151 h 2.395834 v 14.58334 h -2.395834 z m 0,-5.67708 h 2.395834 v 3.03386 h -2.395834 z"
           style=""
           id="path7460" />
        <path
           d="m 109.48503,366.24479 v 2.26563 q -1.01563,-0.52084 -2.10938,-0.78125 -1.09375,-0.26042 -2.26562,-0.26042 -1.78386,0 -2.68229,0.54688 -0.88542,0.54687 -0.88542,1.64062 0,0.83333 0.63802,1.3151 0.63802,0.46875 2.5651,0.89844 l 0.82032,0.18229 q 2.55208,0.54688 3.61979,1.54948 1.08073,0.98959 1.08073,2.77344 0,2.03125 -1.61459,3.21615 -1.60156,1.18489 -4.41406,1.18489 -1.17187,0 -2.44792,-0.23437 -1.26302,-0.22136 -2.669267,-0.67709 v -2.47395 q 1.328127,0.6901 2.617187,1.04166 1.28906,0.33854 2.55208,0.33854 1.69271,0 2.60417,-0.57291 0.91146,-0.58594 0.91146,-1.64063 0,-0.97656 -0.66406,-1.49739 -0.65104,-0.52084 -2.87761,-1.00261 l -0.83333,-0.19531 q -2.22656,-0.46875 -3.21615,-1.43229 -0.98958,-0.97656 -0.98958,-2.66927 0,-2.05729 1.45833,-3.17709 1.45834,-1.11979 4.14063,-1.11979 1.32812,0 2.5,0.19531 1.17187,0.19532 2.16146,0.58594 z"
           style=""
           id="path7462" />
        <path
           d="m 116.45117,361.67448 v 4.14062 h 4.9349 v 1.86198 h -4.9349 v 7.91667 q 0,1.78386 0.48177,2.29167 0.49479,0.50781 1.99219,0.50781 h 2.46094 v 2.00521 h -2.46094 q -2.77344,0 -3.82812,-1.02865 -1.05469,-1.04166 -1.05469,-3.77604 v -7.91667 h -1.75781 v -1.86198 h 1.75781 v -4.14062 z"
           style=""
           id="path7464" />
        <path
           d="m 127.14128,378.1849 h 9.17969 v 2.21354 h -12.34376 v -2.21354 q 1.4974,-1.54948 4.07553,-4.15365 2.59114,-2.61719 3.2552,-3.3724 1.26303,-1.41927 1.75782,-2.39583 0.50781,-0.98958 0.50781,-1.9401 0,-1.54948 -1.09375,-2.52604 -1.08073,-0.97657 -2.82552,-0.97657 -1.23698,0 -2.61719,0.42969 -1.36719,0.42969 -2.92969,1.30208 v -2.65625 q 1.58854,-0.63802 2.96875,-0.96354 1.38021,-0.32552 2.52605,-0.32552 3.02083,0 4.8177,1.51042 1.79688,1.51041 1.79688,4.03646 0,1.19791 -0.45573,2.27864 -0.44271,1.06771 -1.6276,2.52604 -0.32553,0.37761 -2.07032,2.1875 -1.74479,1.79688 -4.92187,5.03907 z"
           style=""
           id="path7466" />
      </g>
    </g>
    <g
       aria-label="Parameter passing by reference"
       transform="matrix(0.26458333,0,0,0.26458333,16.597167,29.191638)"
       style="font-style:normal;font-weight:normal;font-size:26.66666794px;line-height:1.25;font-family:sans-serif;letter-spacing:0px;word-spacing:0px;fill:#f2f2f2;fill-opacity:1;stroke:none"
       id="flowRoot6321-9-3">
      <path
         d="m 88.104818,363.11979 v 7.30469 h 3.307292 q 1.835937,0 2.838542,-0.95052 1.002604,-0.95052 1.002604,-2.70833 0,-1.7448 -1.002604,-2.69532 -1.002605,-0.95052 -2.838542,-0.95052 z m -2.630209,-2.16146 h 5.937501 q 3.268229,0 4.934896,1.48438 1.679687,1.47135 1.679687,4.32292 0,2.8776 -1.679687,4.34895 -1.666667,1.47136 -4.934896,1.47136 h -3.307292 v 7.8125 h -2.630209 z"
         style=""
         id="path7469" />
      <path
         d="m 106.88086,373.06771 q -2.90365,0 -4.02344,0.66406 -1.11979,0.66406 -1.11979,2.26563 0,1.27604 0.83333,2.03125 0.84636,0.74218 2.29167,0.74218 1.99219,0 3.19011,-1.40625 1.21093,-1.41927 1.21093,-3.76302 v -0.53385 z m 4.77865,-0.98958 v 8.32031 h -2.39584 v -2.21354 q -0.82031,1.32812 -2.04427,1.96614 -1.22396,0.625 -2.99479,0.625 -2.23958,0 -3.56771,-1.25 -1.315102,-1.26302 -1.315102,-3.37239 0,-2.46094 1.640622,-3.71094 1.65365,-1.25 4.92188,-1.25 h 3.35937 v -0.23438 q 0,-1.65364 -1.09375,-2.55208 -1.08073,-0.91146 -3.04687,-0.91146 -1.25,0 -2.4349,0.29948 -1.18489,0.29948 -2.27864,0.89844 v -2.21354 q 1.3151,-0.50782 2.55208,-0.75521 1.23698,-0.26042 2.40885,-0.26042 3.16407,0 4.72657,1.64063 1.5625,1.64062 1.5625,4.97396 z"
         style=""
         id="path7471" />
      <path
         d="m 125.04492,368.05469 q -0.40364,-0.23438 -0.88541,-0.33854 -0.46875,-0.11719 -1.04167,-0.11719 -2.03125,0 -3.125,1.32812 -1.08073,1.31511 -1.08073,3.78907 v 7.68229 h -2.40885 V 365.8151 h 2.40885 v 2.26563 q 0.75521,-1.32813 1.96615,-1.96615 1.21094,-0.65104 2.94271,-0.65104 0.24739,0 0.54687,0.0391 0.29948,0.0261 0.66406,0.0912 z"
         style=""
         id="path7473" />
      <path
         d="m 134.18555,373.06771 q -2.90365,0 -4.02344,0.66406 -1.11979,0.66406 -1.11979,2.26563 0,1.27604 0.83333,2.03125 0.84636,0.74218 2.29167,0.74218 1.99219,0 3.1901,-1.40625 1.21094,-1.41927 1.21094,-3.76302 v -0.53385 z m 4.77864,-0.98958 v 8.32031 h -2.39583 v -2.21354 q -0.82031,1.32812 -2.04427,1.96614 -1.22396,0.625 -2.99479,0.625 -2.23959,0 -3.56771,-1.25 -1.31511,-1.26302 -1.31511,-3.37239 0,-2.46094 1.64063,-3.71094 1.65365,-1.25 4.92187,-1.25 h 3.35938 v -0.23438 q 0,-1.65364 -1.09375,-2.55208 -1.08073,-0.91146 -3.04688,-0.91146 -1.25,0 -2.43489,0.29948 -1.1849,0.29948 -2.27865,0.89844 v -2.21354 q 1.31511,-0.50782 2.55209,-0.75521 1.23698,-0.26042 2.40885,-0.26042 3.16406,0 4.72656,1.64063 1.5625,1.64062 1.5625,4.97396 z"
         style=""
         id="path7475" />
      <path
         d="m 155.25326,368.61458 q 0.89844,-1.61458 2.14844,-2.38281 1.25,-0.76823 2.9427,-0.76823 2.27865,0 3.51563,1.60156 1.23698,1.58855 1.23698,4.53125 v 8.80209 h -2.40886 v -8.72396 q 0,-2.09635 -0.74218,-3.11198 -0.74219,-1.01562 -2.26563,-1.01562 -1.86198,0 -2.94271,1.23697 -1.08073,1.23698 -1.08073,3.3724 v 8.24219 h -2.40885 v -8.72396 q 0,-2.10938 -0.74219,-3.11198 -0.74219,-1.01562 -2.29166,-1.01562 -1.83594,0 -2.91667,1.25 -1.08073,1.23697 -1.08073,3.35937 v 8.24219 h -2.40885 V 365.8151 h 2.40885 v 2.26563 q 0.82031,-1.34115 1.96615,-1.97917 1.14583,-0.63802 2.72135,-0.63802 1.58854,0 2.69531,0.80729 1.11979,0.8073 1.65365,2.34375 z"
         style=""
         id="path7477" />
      <path
         d="m 182.34961,372.50781 v 1.17188 h -11.01562 q 0.15625,2.47396 1.48437,3.77604 1.34115,1.28906 3.72396,1.28906 1.38021,0 2.66927,-0.33854 1.30209,-0.33854 2.57813,-1.01562 v 2.26562 q -1.28907,0.54688 -2.64323,0.83333 -1.35417,0.28646 -2.7474,0.28646 -3.48958,0 -5.53385,-2.03125 -2.03125,-2.03125 -2.03125,-5.49479 0,-3.58073 1.92708,-5.67708 1.9401,-2.10938 5.22135,-2.10938 2.94271,0 4.64844,1.90104 1.71875,1.88802 1.71875,5.14323 z m -2.39583,-0.70312 q -0.026,-1.96615 -1.10677,-3.13802 -1.06771,-1.17188 -2.83854,-1.17188 -2.00521,0 -3.21615,1.13281 -1.19792,1.13282 -1.38021,3.19011 z"
         style=""
         id="path7479" />
      <path
         d="m 188.6517,361.67448 v 4.14062 h 4.93489 v 1.86198 h -4.93489 v 7.91667 q 0,1.78386 0.48177,2.29167 0.49479,0.50781 1.99218,0.50781 h 2.46094 v 2.00521 h -2.46094 q -2.77343,0 -3.82812,-1.02865 -1.05469,-1.04166 -1.05469,-3.77604 v -7.91667 h -1.75781 v -1.86198 h 1.75781 v -4.14062 z"
         style=""
         id="path7481" />
      <path
         d="m 209.2116,372.50781 v 1.17188 h -11.01563 q 0.15625,2.47396 1.48438,3.77604 1.34114,1.28906 3.72395,1.28906 1.38021,0 2.66928,-0.33854 1.30208,-0.33854 2.57812,-1.01562 v 2.26562 q -1.28906,0.54688 -2.64323,0.83333 -1.35416,0.28646 -2.74739,0.28646 -3.48959,0 -5.53386,-2.03125 -2.03125,-2.03125 -2.03125,-5.49479 0,-3.58073 1.92708,-5.67708 1.94011,-2.10938 5.22136,-2.10938 2.94271,0 4.64844,1.90104 1.71875,1.88802 1.71875,5.14323 z m -2.39584,-0.70312 q -0.026,-1.96615 -1.10677,-3.13802 -1.06771,-1.17188 -2.83854,-1.17188 -2.00521,0 -3.21615,1.13281 -1.19791,1.13282 -1.3802,3.19011 z"
         style=""
         id="path7483" />
      <path
         d="m 221.59441,368.05469 q -0.40365,-0.23438 -0.88542,-0.33854 -0.46875,-0.11719 -1.04166,-0.11719 -2.03125,0 -3.125,1.32812 -1.08073,1.31511 -1.08073,3.78907 v 7.68229 h -2.40886 V 365.8151 h 2.40886 v 2.26563 q 0.7552,-1.32813 1.96614,-1.96615 1.21094,-0.65104 2.94271,-0.65104 0.2474,0 0.54688,0.0391 0.29948,0.0261 0.66406,0.0912 z"
         style=""
         id="path7485" />
      <path
         d="m 234.9017,378.21094 v 7.73437 h -2.40886 V 365.8151 h 2.40886 v 2.21355 q 0.75521,-1.30209 1.90104,-1.92709 1.15885,-0.63802 2.76042,-0.63802 2.65625,0 4.30989,2.10938 1.66667,2.10937 1.66667,5.54687 0,3.4375 -1.66667,5.54688 -1.65364,2.10937 -4.30989,2.10937 -1.60157,0 -2.76042,-0.625 -1.14583,-0.63802 -1.90104,-1.9401 z m 8.15104,-5.09115 q 0,-2.64323 -1.09375,-4.14062 -1.08073,-1.51042 -2.98177,-1.51042 -1.90104,0 -2.99479,1.51042 -1.08073,1.49739 -1.08073,4.14062 0,2.64323 1.08073,4.15365 1.09375,1.49739 2.99479,1.49739 1.90104,0 2.98177,-1.49739 1.09375,-1.51042 1.09375,-4.15365 z"
         style=""
         id="path7487" />
      <path
         d="m 256.13867,373.06771 q -2.90364,0 -4.02344,0.66406 -1.11979,0.66406 -1.11979,2.26563 0,1.27604 0.83334,2.03125 0.84635,0.74218 2.29166,0.74218 1.99219,0 3.19011,-1.40625 1.21093,-1.41927 1.21093,-3.76302 v -0.53385 z m 4.77865,-0.98958 v 8.32031 h -2.39584 v -2.21354 q -0.82031,1.32812 -2.04427,1.96614 -1.22395,0.625 -2.99479,0.625 -2.23958,0 -3.56771,-1.25 -1.3151,-1.26302 -1.3151,-3.37239 0,-2.46094 1.64062,-3.71094 1.65365,-1.25 4.92188,-1.25 h 3.35937 v -0.23438 q 0,-1.65364 -1.09375,-2.55208 -1.08072,-0.91146 -3.04687,-0.91146 -1.25,0 -2.4349,0.29948 -1.18489,0.29948 -2.27864,0.89844 v -2.21354 q 1.3151,-0.50782 2.55208,-0.75521 1.23698,-0.26042 2.40886,-0.26042 3.16406,0 4.72656,1.64063 1.5625,1.64062 1.5625,4.97396 z"
         style=""
         id="path7489" />
      <path
         d="m 275.1491,366.24479 v 2.26563 q -1.01563,-0.52084 -2.10938,-0.78125 -1.09375,-0.26042 -2.26562,-0.26042 -1.78386,0 -2.68229,0.54688 -0.88542,0.54687 -0.88542,1.64062 0,0.83333 0.63802,1.3151 0.63802,0.46875 2.56511,0.89844 l 0.82031,0.18229 q 2.55208,0.54688 3.61979,1.54948 1.08073,0.98959 1.08073,2.77344 0,2.03125 -1.61458,3.21615 -1.60157,1.18489 -4.41407,1.18489 -1.17187,0 -2.44791,-0.23437 -1.26302,-0.22136 -2.66927,-0.67709 v -2.47395 q 1.32812,0.6901 2.61718,1.04166 1.28907,0.33854 2.55209,0.33854 1.6927,0 2.60416,-0.57291 0.91146,-0.58594 0.91146,-1.64063 0,-0.97656 -0.66406,-1.49739 -0.65104,-0.52084 -2.87761,-1.00261 l -0.83333,-0.19531 q -2.22656,-0.46875 -3.21614,-1.43229 -0.98959,-0.97656 -0.98959,-2.66927 0,-2.05729 1.45834,-3.17709 1.45833,-1.11979 4.14062,-1.11979 1.32813,0 2.5,0.19531 1.17188,0.19532 2.16146,0.58594 z"
         style=""
         id="path7491" />
      <path
         d="m 289.04232,366.24479 v 2.26563 q -1.01563,-0.52084 -2.10938,-0.78125 -1.09375,-0.26042 -2.26562,-0.26042 -1.78386,0 -2.68229,0.54688 -0.88542,0.54687 -0.88542,1.64062 0,0.83333 0.63802,1.3151 0.63802,0.46875 2.5651,0.89844 l 0.82032,0.18229 q 2.55208,0.54688 3.61979,1.54948 1.08073,0.98959 1.08073,2.77344 0,2.03125 -1.61459,3.21615 -1.60156,1.18489 -4.41406,1.18489 -1.17187,0 -2.44791,-0.23437 -1.26303,-0.22136 -2.66928,-0.67709 v -2.47395 q 1.32813,0.6901 2.61719,1.04166 1.28906,0.33854 2.55209,0.33854 1.6927,0 2.60416,-0.57291 0.91146,-0.58594 0.91146,-1.64063 0,-0.97656 -0.66406,-1.49739 -0.65104,-0.52084 -2.87761,-1.00261 l -0.83333,-0.19531 q -2.22656,-0.46875 -3.21615,-1.43229 -0.98958,-0.97656 -0.98958,-2.66927 0,-2.05729 1.45833,-3.17709 1.45834,-1.11979 4.14063,-1.11979 1.32812,0 2.5,0.19531 1.17187,0.19532 2.16146,0.58594 z"
         style=""
         id="path7493" />
      <path
         d="m 293.63868,365.8151 h 2.39583 v 14.58334 h -2.39583 z m 0,-5.67708 h 2.39583 v 3.03386 h -2.39583 z"
         style=""
         id="path7495" />
      <path
         d="m 313.16993,371.59635 v 8.80209 h -2.39583 v -8.72396 q 0,-2.07031 -0.80729,-3.09896 -0.80729,-1.02864 -2.42188,-1.02864 -1.9401,0 -3.05989,1.23697 -1.1198,1.23698 -1.1198,3.3724 v 8.24219 h -2.40885 V 365.8151 h 2.40885 v 2.26563 q 0.85938,-1.3151 2.01823,-1.96615 1.17188,-0.65104 2.69532,-0.65104 2.51302,0 3.80208,1.5625 1.28906,1.54948 1.28906,4.57031 z"
         style=""
         id="path7497" />
      <path
         d="m 327.54494,372.9375 q 0,-2.60417 -1.08073,-4.03646 -1.06771,-1.43229 -3.00781,-1.43229 -1.92709,0 -3.00782,1.43229 -1.06771,1.43229 -1.06771,4.03646 0,2.59115 1.06771,4.02344 1.08073,1.43229 3.00782,1.43229 1.9401,0 3.00781,-1.43229 1.08073,-1.43229 1.08073,-4.02344 z m 2.39583,5.65104 q 0,3.72396 -1.65364,5.53386 -1.65365,1.82291 -5.06511,1.82291 -1.26302,0 -2.38281,-0.19531 -1.11979,-0.18229 -2.17448,-0.57292 v -2.33072 q 1.05469,0.57291 2.08333,0.84635 1.02865,0.27344 2.09636,0.27344 2.35677,0 3.52864,-1.23698 1.17188,-1.22396 1.17188,-3.71094 v -1.1849 q -0.74219,1.28907 -1.90104,1.92709 -1.15886,0.63802 -2.77344,0.63802 -2.68229,0 -4.32292,-2.04427 -1.64062,-2.04427 -1.64062,-5.41667 0,-3.38542 1.64062,-5.42969 1.64063,-2.04427 4.32292,-2.04427 1.61458,0 2.77344,0.63802 1.15885,0.63802 1.90104,1.92709 v -2.21355 h 2.39583 z"
         style=""
         id="path7499" />
      <path
         d="m 353.82097,373.11979 q 0,-2.64323 -1.09375,-4.14062 -1.08072,-1.51042 -2.98177,-1.51042 -1.90104,0 -2.99479,1.51042 -1.08073,1.49739 -1.08073,4.14062 0,2.64323 1.08073,4.15365 1.09375,1.49739 2.99479,1.49739 1.90105,0 2.98177,-1.49739 1.09375,-1.51042 1.09375,-4.15365 z m -8.15104,-5.09114 q 0.75521,-1.30209 1.90104,-1.92709 1.15886,-0.63802 2.76042,-0.63802 2.65625,0 4.3099,2.10938 1.66666,2.10937 1.66666,5.54687 0,3.4375 -1.66666,5.54688 -1.65365,2.10937 -4.3099,2.10937 -1.60156,0 -2.76042,-0.625 -1.14583,-0.63802 -1.90104,-1.9401 v 2.1875 h -2.40885 v -20.26042 h 2.40885 z"
         style=""
         id="path7501" />
      <path
         d="m 366.34703,381.75261 q -1.01563,2.60416 -1.97917,3.39843 -0.96354,0.79427 -2.57813,0.79427 h -1.91406 v -2.0052 h 1.40625 q 0.98958,0 1.53646,-0.46875 0.54687,-0.46875 1.21094,-2.21355 l 0.42969,-1.09375 -5.89844,-14.34896 h 2.53906 l 4.55729,11.40626 4.55729,-11.40626 h 2.53907 z"
         style=""
         id="path7503" />
      <path
         d="m 392.98765,368.05469 q -0.40364,-0.23438 -0.88542,-0.33854 -0.46875,-0.11719 -1.04166,-0.11719 -2.03125,0 -3.125,1.32812 -1.08073,1.31511 -1.08073,3.78907 v 7.68229 h -2.40886 V 365.8151 h 2.40886 v 2.26563 q 0.75521,-1.32813 1.96614,-1.96615 1.21094,-0.65104 2.94271,-0.65104 0.2474,0 0.54688,0.0391 0.29948,0.0261 0.66406,0.0912 z"
         style=""
         id="path7505" />
      <path
         d="m 407.38868,372.50781 v 1.17188 h -11.01562 q 0.15625,2.47396 1.48437,3.77604 1.34115,1.28906 3.72396,1.28906 1.38021,0 2.66927,-0.33854 1.30209,-0.33854 2.57813,-1.01562 v 2.26562 q -1.28907,0.54688 -2.64323,0.83333 -1.35417,0.28646 -2.7474,0.28646 -3.48958,0 -5.53385,-2.03125 -2.03125,-2.03125 -2.03125,-5.49479 0,-3.58073 1.92708,-5.67708 1.9401,-2.10938 5.22135,-2.10938 2.94271,0 4.64844,1.90104 1.71875,1.88802 1.71875,5.14323 z m -2.39583,-0.70312 q -0.026,-1.96615 -1.10677,-3.13802 -1.06771,-1.17188 -2.83854,-1.17188 -2.00521,0 -3.21615,1.13281 -1.19792,1.13282 -1.38021,3.19011 z"
         style=""
         id="path7507" />
      <path
         d="m 418.70379,360.13802 v 1.99219 h -2.29167 q -1.28906,0 -1.79688,0.52083 -0.49479,0.52084 -0.49479,1.875 v 1.28906 h 3.94532 v 1.86198 h -3.94532 v 12.72136 h -2.40885 v -12.72136 h -2.29167 v -1.86198 h 2.29167 v -1.01562 q 0,-2.4349 1.13281,-3.54167 1.13281,-1.11979 3.59375,-1.11979 z"
         style=""
         id="path7509" />
      <path
         d="m 433.18296,372.50781 v 1.17188 h -11.01562 q 0.15625,2.47396 1.48437,3.77604 1.34115,1.28906 3.72396,1.28906 1.38021,0 2.66927,-0.33854 1.30209,-0.33854 2.57813,-1.01562 v 2.26562 q -1.28906,0.54688 -2.64323,0.83333 -1.35417,0.28646 -2.7474,0.28646 -3.48958,0 -5.53385,-2.03125 -2.03125,-2.03125 -2.03125,-5.49479 0,-3.58073 1.92708,-5.67708 1.94011,-2.10938 5.22136,-2.10938 2.9427,0 4.64843,1.90104 1.71875,1.88802 1.71875,5.14323 z m -2.39583,-0.70312 q -0.026,-1.96615 -1.10677,-3.13802 -1.06771,-1.17188 -2.83854,-1.17188 -2.00521,0 -3.21615,1.13281 -1.19792,1.13282 -1.38021,3.19011 z"
         style=""
         id="path7511" />
      <path
         d="m 445.56578,368.05469 q -0.40365,-0.23438 -0.88542,-0.33854 -0.46875,-0.11719 -1.04167,-0.11719 -2.03125,0 -3.125,1.32812 -1.08073,1.31511 -1.08073,3.78907 v 7.68229 h -2.40885 V 365.8151 h 2.40885 v 2.26563 q 0.75521,-1.32813 1.96615,-1.96615 1.21094,-0.65104 2.94271,-0.65104 0.24739,0 0.54687,0.0391 0.29948,0.0261 0.66407,0.0912 z"
         style=""
         id="path7513" />
      <path
         d="m 459.96681,372.50781 v 1.17188 h -11.01563 q 0.15625,2.47396 1.48438,3.77604 1.34114,1.28906 3.72396,1.28906 1.3802,0 2.66927,-0.33854 1.30208,-0.33854 2.57812,-1.01562 v 2.26562 q -1.28906,0.54688 -2.64323,0.83333 -1.35416,0.28646 -2.74739,0.28646 -3.48959,0 -5.53386,-2.03125 -2.03125,-2.03125 -2.03125,-5.49479 0,-3.58073 1.92709,-5.67708 1.9401,-2.10938 5.22135,-2.10938 2.94271,0 4.64844,1.90104 1.71875,1.88802 1.71875,5.14323 z m -2.39584,-0.70312 q -0.026,-1.96615 -1.10677,-3.13802 -1.0677,-1.17188 -2.83854,-1.17188 -2.00521,0 -3.21614,1.13281 -1.19792,1.13282 -1.38021,3.19011 z"
         style=""
         id="path7515" />
      <path
         d="m 476.0215,371.59635 v 8.80209 h -2.39584 v -8.72396 q 0,-2.07031 -0.80729,-3.09896 -0.80729,-1.02864 -2.42188,-1.02864 -1.9401,0 -3.05989,1.23697 -1.11979,1.23698 -1.11979,3.3724 v 8.24219 h -2.40886 V 365.8151 h 2.40886 v 2.26563 q 0.85937,-1.3151 2.01823,-1.96615 1.17187,-0.65104 2.69531,-0.65104 2.51302,0 3.80208,1.5625 1.28907,1.54948 1.28907,4.57031 z"
         style=""
         id="path7517" />
      <path
         d="m 491.29492,366.375 v 2.23958 q -1.01562,-0.55989 -2.04427,-0.83333 -1.01562,-0.28646 -2.05729,-0.28646 -2.33073,0 -3.61979,1.48438 -1.28906,1.47135 -1.28906,4.14062 0,2.66927 1.28906,4.15365 1.28906,1.47135 3.61979,1.47135 1.04167,0 2.05729,-0.27343 1.02865,-0.28646 2.04427,-0.84636 v 2.21354 q -1.0026,0.46875 -2.08333,0.70313 -1.06771,0.23437 -2.27865,0.23437 -3.29427,0 -5.23437,-2.07031 -1.94011,-2.07031 -1.94011,-5.58594 0,-3.56771 1.95313,-5.61198 1.96614,-2.04427 5.3776,-2.04427 1.10677,0 2.16146,0.23438 1.05469,0.22135 2.04427,0.67708 z"
         style=""
         id="path7519" />
      <path
         d="m 507.93556,372.50781 v 1.17188 h -11.01563 q 0.15625,2.47396 1.48438,3.77604 1.34114,1.28906 3.72396,1.28906 1.3802,0 2.66927,-0.33854 1.30208,-0.33854 2.57812,-1.01562 v 2.26562 q -1.28906,0.54688 -2.64323,0.83333 -1.35416,0.28646 -2.74739,0.28646 -3.48959,0 -5.53386,-2.03125 -2.03125,-2.03125 -2.03125,-5.49479 0,-3.58073 1.92709,-5.67708 1.9401,-2.10938 5.22135,-2.10938 2.94271,0 4.64844,1.90104 1.71875,1.88802 1.71875,5.14323 z m -2.39584,-0.70312 q -0.026,-1.96615 -1.10677,-3.13802 -1.0677,-1.17188 -2.83854,-1.17188 -2.00521,0 -3.21614,1.13281 -1.19792,1.13282 -1.38021,3.19011 z"
         style=""
         id="path7521" />
    </g>
    <g
       transform="scale(0.26458333)"
       style="font-style:normal;font-weight:normal;font-size:13.33333302px;line-height:1.25;font-family:sans-serif;letter-spacing:0px;word-spacing:0px;fill:#000000;fill-opacity:1;stroke:none"
       id="flowRoot6705" />
  </g>
</svg>
