<?xml version="1.0" encoding="UTF-8" standalone="no"?>
<!DOCTYPE svg PUBLIC "-//W3C//DTD SVG 1.1//EN" "http://www.w3.org/Graphics/SVG/1.1/DTD/svg11.dtd">
<svg xmlns="http://www.w3.org/2000/svg" xmlns:xlink="http://www.w3.org/1999/xlink" xmlns:serif="http://www.serif.com/" width="100%" height="100%" viewBox="0 0 400 188" version="1.1" xml:space="preserve" style="fill-rule:evenodd;clip-rule:evenodd;stroke-linejoin:round;stroke-miterlimit:2;">
    <g transform="matrix(1.02301,0,0,1.02301,-835.667,-780.895)">
        <g transform="matrix(0.977503,0,0,0.977503,816.867,763.327)">
            <path d="M268.817,171.053C268.817,173.164 268.328,174.685 267.349,175.618C266.37,176.551 264.78,177.018 262.577,177.018C260.253,177.018 258.593,176.574 257.599,175.687C256.605,174.8 256.108,173.301 256.108,171.191L256.108,152.288C256.108,151.921 255.971,151.6 255.695,151.324C255.42,151.049 255.084,150.911 254.686,150.911L245.28,150.911C244.883,150.911 244.546,151.049 244.271,151.324C243.996,151.6 243.858,151.921 243.858,152.288L243.858,175.137C243.858,179.878 245.494,183.166 248.767,185.001C251.734,186.653 256.276,187.479 262.394,187.479C268.328,187.479 272.855,186.653 275.975,185.001C279.37,183.166 281.068,180.031 281.068,175.595L281.068,152.288C281.068,151.921 280.93,151.6 280.655,151.324C280.379,151.049 280.058,150.911 279.691,150.911L270.24,150.911C269.842,150.911 269.506,151.049 269.23,151.324C268.955,151.6 268.817,151.921 268.817,152.288L268.817,171.053ZM77.585,168.897C77.585,162.626 75.765,157.954 72.125,154.88C68.485,151.806 63.117,150.269 56.021,150.269C48.925,150.269 43.556,151.806 39.917,154.88C36.277,157.954 34.457,162.626 34.457,168.897C34.457,175.167 36.277,179.832 39.917,182.89C43.556,185.949 48.925,187.479 56.021,187.479C63.117,187.479 68.485,185.949 72.125,182.89C75.765,179.832 77.585,175.167 77.585,168.897ZM20.188,186.928C23.766,186.928 26.672,186.026 28.905,184.221C31.26,182.294 32.438,179.786 32.438,176.697C32.438,173.913 31.673,171.634 30.144,169.86C29.318,168.912 28.11,168.117 26.519,167.474C28.079,166.679 29.226,165.639 29.96,164.355C30.694,163.07 31.061,161.586 31.061,159.904C31.061,158.528 30.779,157.312 30.213,156.257C29.647,155.201 28.829,154.245 27.758,153.389C26.718,152.594 25.548,151.99 24.248,151.577C22.948,151.164 21.503,150.957 19.912,150.957L1.376,150.957C1.009,150.957 0.688,151.095 0.413,151.37C0.138,151.645 0,151.967 0,152.334L0,185.552C0,185.919 0.138,186.24 0.413,186.515C0.688,186.79 1.009,186.928 1.376,186.928L20.188,186.928ZM194.123,186.928C194.521,186.928 194.849,186.79 195.109,186.515C195.369,186.24 195.499,185.919 195.499,185.552L195.499,178.853C195.499,178.455 195.369,178.119 195.109,177.844C194.849,177.568 194.521,177.431 194.123,177.431L177.468,177.431L177.468,173.577L190.636,173.531C191.003,173.531 191.324,173.393 191.599,173.118C191.875,172.843 192.012,172.506 192.012,172.108L192.012,165.502C192.012,165.135 191.875,164.813 191.599,164.538C191.324,164.263 191.003,164.125 190.636,164.125L177.468,164.125L177.468,160.455L192.884,160.455C193.251,160.455 193.572,160.317 193.848,160.042C194.123,159.766 194.261,159.43 194.261,159.032L194.261,152.334C194.261,151.967 194.123,151.645 193.848,151.37C193.572,151.095 193.251,150.957 192.884,150.957L166.135,150.957C165.768,150.957 165.447,151.095 165.172,151.37C164.897,151.645 164.759,151.967 164.759,152.334L164.759,185.552C164.759,185.919 164.897,186.24 165.172,186.515C165.447,186.79 165.768,186.928 166.135,186.928L194.123,186.928ZM124.292,150.957C123.894,150.957 123.558,151.095 123.282,151.37C123.007,151.645 122.87,151.967 122.87,152.334L122.87,185.552C122.87,185.919 123.007,186.24 123.282,186.515C123.558,186.79 123.894,186.928 124.292,186.928L144.48,186.928C149.832,186.928 154.206,185.246 157.602,181.881C161.027,178.486 162.74,174.173 162.74,168.943C162.74,163.59 161.043,159.262 157.647,155.958C154.222,152.624 149.771,150.957 144.296,150.957L124.292,150.957ZM97.039,174.219C98.69,174.219 99.638,174.311 99.883,174.494C100.036,174.586 100.181,174.708 100.319,174.861C100.457,175.014 100.587,175.167 100.709,175.32L100.663,175.228L106.536,186.148C106.658,186.362 106.834,186.546 107.064,186.699C107.293,186.852 107.53,186.928 107.775,186.928L119.428,186.928C120.01,186.928 120.43,186.706 120.69,186.263C120.95,185.819 120.927,185.337 120.621,184.818L114.336,174.219C113.877,173.607 113.303,172.995 112.615,172.384C111.927,171.772 111.093,171.206 110.115,170.686C110.94,170.411 111.698,170.097 112.386,169.746C113.074,169.394 113.678,169.019 114.198,168.621C116.309,167.062 117.364,164.538 117.364,161.051C117.364,157.962 116.079,155.469 113.51,153.572C111.124,151.829 107.958,150.957 104.012,150.957L80.98,150.957C80.613,150.957 80.292,151.095 80.017,151.37C79.741,151.645 79.604,151.967 79.604,152.334L79.604,185.552C79.604,185.919 79.741,186.24 80.017,186.515C80.292,186.79 80.613,186.928 80.98,186.928L91.166,186.928C91.563,186.928 91.9,186.79 92.175,186.515C92.45,186.24 92.588,185.919 92.588,185.552L92.588,174.219L97.039,174.219ZM316.029,150.957C315.876,150.957 315.677,151.011 315.432,151.118C315.188,151.225 315.035,151.324 314.974,151.416L306.899,160.501L298.548,151.416C298.487,151.324 298.342,151.225 298.112,151.118C297.883,151.011 297.692,150.957 297.539,150.957L285.472,150.957C285.136,150.957 284.853,151.034 284.623,151.187C284.394,151.34 284.226,151.531 284.119,151.76C284.012,151.99 283.981,152.242 284.027,152.517C284.073,152.793 284.203,153.052 284.417,153.297L297.86,168.117L283.499,184.634C283.285,184.879 283.163,185.131 283.132,185.391C283.102,185.651 283.14,185.896 283.247,186.125C283.354,186.355 283.522,186.546 283.752,186.699C283.981,186.852 284.264,186.928 284.6,186.928L295.428,186.928C295.581,186.928 295.78,186.875 296.025,186.767C296.269,186.66 296.422,186.546 296.484,186.423L305.843,175.687L314.377,186.377C314.469,186.5 314.645,186.622 314.905,186.745C315.165,186.867 315.371,186.928 315.524,186.928L327.132,186.928C327.774,186.928 328.21,186.676 328.44,186.171C328.669,185.666 328.6,185.169 328.233,184.68L314.928,168.117L327.82,153.297C328.249,152.808 328.34,152.295 328.096,151.76C327.851,151.225 327.392,150.957 326.719,150.957L316.029,150.957ZM243.674,186.928C244.286,186.928 244.714,186.722 244.959,186.309C245.204,185.896 245.204,185.429 244.959,184.909L227.203,151.737C227.081,151.523 226.897,151.34 226.653,151.187C226.408,151.034 226.178,150.957 225.964,150.957L217.843,150.957C217.66,150.957 217.43,151.034 217.155,151.187C216.88,151.34 216.696,151.508 216.605,151.691L197.747,184.863C197.442,185.383 197.426,185.857 197.702,186.286C197.977,186.714 198.42,186.928 199.032,186.928L208.53,186.928C208.774,186.928 209.019,186.852 209.264,186.699C209.508,186.546 209.692,186.362 209.814,186.148L212.154,181.652L229.36,181.652L231.699,186.148C231.791,186.362 231.967,186.546 232.227,186.699C232.487,186.852 232.724,186.928 232.938,186.928L243.674,186.928ZM15.554,171.879C16.838,171.879 17.878,172.193 18.674,172.82C19.469,173.447 19.867,174.295 19.867,175.366C19.867,176.375 19.446,177.186 18.605,177.798C17.764,178.409 16.701,178.715 15.416,178.715L12.25,178.715L12.25,171.879L15.554,171.879ZM64.876,168.897C64.876,171.527 64.119,173.508 62.605,174.838C61.091,176.169 58.896,176.834 56.021,176.834C53.146,176.834 50.959,176.169 49.46,174.838C47.961,173.508 47.212,171.527 47.212,168.897C47.212,166.266 47.961,164.286 49.46,162.955C50.959,161.625 53.146,160.959 56.021,160.959C58.896,160.959 61.091,161.625 62.605,162.955C64.119,164.286 64.876,166.266 64.876,168.897ZM150.261,168.989C150.261,171.313 149.695,173.064 148.563,174.242C147.431,175.42 145.764,176.008 143.562,176.008L135.854,176.008L135.854,161.877L143.929,161.877C146.009,161.877 147.584,162.473 148.655,163.666C149.725,164.859 150.261,166.633 150.261,168.989ZM221.055,165.593L225.184,173.577L216.651,173.577L221.055,165.593ZM99.47,159.17C101.153,159.17 102.437,159.43 103.324,159.95C104.211,160.47 104.655,161.296 104.655,162.428C104.655,163.773 104.074,164.706 102.911,165.226C101.749,165.746 100.051,166.006 97.818,166.006L92.313,166.006L92.313,159.17L99.47,159.17ZM15.095,159.17C16.288,159.17 17.228,159.461 17.917,160.042C18.605,160.623 18.949,161.311 18.949,162.106C18.949,162.81 18.589,163.452 17.871,164.033C17.152,164.615 16.211,164.905 15.049,164.905L12.25,164.905L12.25,159.17L15.095,159.17Z" style="fill:rgb(254,111,97);fill-rule:nonzero;"/>
        </g>
        <g transform="matrix(0.977503,0,0,0.977503,816.867,763.327)">
            <path d="M386.408,145.628C385.807,145.628 385.31,145.836 384.917,146.252C384.524,146.668 384.328,147.154 384.328,147.708L384.328,166.085L377.809,157.625C377.717,157.486 377.497,157.347 377.15,157.209C376.804,157.07 376.538,157.001 376.353,157.001L369.279,157.001C368.678,157.001 368.17,157.197 367.754,157.59C367.338,157.983 367.13,158.48 367.13,159.081C366.991,164.074 366.413,167.241 365.396,168.582C364.471,169.784 363.454,170.385 362.345,170.385C361.281,170.385 360.472,169.934 359.918,169.032C359.363,168.131 359.085,166.94 359.085,165.461C359.085,161.994 359.733,158.942 361.027,156.307C361.813,154.828 362.449,153.603 362.934,152.632C363.42,151.661 363.824,150.921 364.148,150.413C364.518,149.904 364.61,149.35 364.425,148.749C364.24,148.148 363.824,147.708 363.177,147.431L353.33,143.339C352.96,143.201 352.532,143.166 352.047,143.235C351.561,143.305 351.18,143.501 350.903,143.825C350.394,144.333 349.77,145.258 349.03,146.599C348.291,147.939 347.458,149.627 346.534,151.661C344.685,155.776 343.76,160.422 343.76,165.6C343.76,172.812 345.228,178.313 348.163,182.104C351.099,185.895 355.641,187.791 361.79,187.791C365.997,187.791 369.418,186.623 372.053,184.289C374.688,181.954 376.491,178.521 377.462,173.991L386.893,184.046C386.986,184.138 387.206,184.266 387.552,184.427C387.899,184.589 388.188,184.67 388.419,184.67L396.949,184.67C397.504,184.67 397.989,184.45 398.405,184.011C398.821,183.572 399.029,183.075 399.029,182.52L399.029,147.639C399.029,147.084 398.821,146.599 398.405,146.183C397.989,145.767 397.504,145.559 396.949,145.559L386.408,145.628ZM346.672,96.392C346.118,96.392 345.632,96.6 345.216,97.016C344.8,97.432 344.592,97.917 344.592,98.472L344.592,138.138C344.592,138.693 344.8,139.179 345.216,139.595C345.632,140.011 346.118,140.219 346.672,140.219L357.837,140.219C358.438,140.219 358.947,140.011 359.363,139.595C359.779,139.179 359.987,138.693 359.987,138.138L359.987,123.922C360.496,124.431 360.993,124.951 361.478,125.483C361.963,126.014 362.507,126.558 363.108,127.112L363.038,127.112C363.963,128.037 365.13,129.135 366.54,130.406C367.95,131.678 369.626,133.122 371.568,134.74C375.59,138.115 379.866,139.803 384.397,139.803C389.344,139.803 393.204,137.861 395.978,133.978C398.613,130.418 399.931,125.679 399.931,119.762C399.931,115.37 399.075,111.07 397.365,106.863C396.486,104.783 395.689,103.072 394.972,101.732C394.256,100.391 393.574,99.397 392.927,98.75C392.834,98.611 392.615,98.472 392.268,98.334C391.921,98.195 391.632,98.125 391.401,98.125L378.572,98.125C378.063,98.125 377.636,98.264 377.289,98.542C376.942,98.819 376.7,99.143 376.561,99.512C376.422,99.882 376.411,100.287 376.526,100.726C376.642,101.165 376.908,101.523 377.324,101.801C378.711,102.864 380.398,104.852 382.386,107.765C384.281,110.539 385.229,113.289 385.229,116.017C385.229,117.681 384.813,118.987 383.981,119.935C383.149,120.883 381.993,121.357 380.514,121.357C379.312,121.357 378.11,120.894 376.908,119.97C375.151,118.629 373.741,117.427 372.677,116.364L372.677,116.433L354.717,97.085C354.578,96.947 354.335,96.796 353.989,96.635C353.642,96.473 353.376,96.392 353.191,96.392L346.672,96.392ZM371.845,93.341C381.415,93.341 388.442,91.561 392.927,88.001L392.857,88.001C397.619,84.349 400,78.385 400,70.109C400,61.834 397.642,55.87 392.927,52.218C388.396,48.658 381.369,46.878 371.845,46.878C367.083,46.878 362.957,47.329 359.467,48.231C355.976,49.132 353.099,50.461 350.833,52.218C346.118,55.916 343.76,61.88 343.76,70.109C343.76,78.431 346.118,84.395 350.833,88.001L350.764,88.001C355.295,91.561 362.322,93.341 371.845,93.341ZM371.845,75.588C366.205,75.588 362.368,75.264 360.334,74.617C359.085,74.201 358.461,72.698 358.461,70.109C358.461,67.521 359.085,66.018 360.334,65.602C361.305,65.325 362.761,65.105 364.703,64.943C366.644,64.781 369.025,64.7 371.845,64.7C377.578,64.7 381.415,65.001 383.357,65.602C384.605,65.926 385.229,67.428 385.229,70.109C385.229,72.698 384.605,74.201 383.357,74.617C381.276,75.264 377.439,75.588 371.845,75.588ZM346.672,0C346.118,0 345.632,0.208 345.216,0.624C344.8,1.04 344.592,1.526 344.592,2.08L344.592,41.747C344.592,42.301 344.8,42.787 345.216,43.203C345.632,43.619 346.118,43.827 346.672,43.827L357.837,43.827C358.438,43.827 358.947,43.619 359.363,43.203C359.779,42.787 359.987,42.301 359.987,41.747L359.987,27.531C360.496,28.039 360.993,28.559 361.478,29.091C361.963,29.623 362.507,30.166 363.108,30.721L363.038,30.721C363.963,31.645 365.13,32.743 366.54,34.015C367.95,35.286 369.626,36.731 371.568,38.349C375.59,41.724 379.866,43.411 384.397,43.411C389.344,43.411 393.204,41.469 395.978,37.586C398.613,34.026 399.931,29.287 399.931,23.37C399.931,18.978 399.075,14.678 397.365,10.471C396.486,8.391 395.689,6.68 394.972,5.34C394.256,3.999 393.574,3.005 392.927,2.358C392.834,2.219 392.615,2.08 392.268,1.942C391.921,1.803 391.632,1.734 391.401,1.734L378.572,1.734C378.063,1.734 377.636,1.872 377.289,2.15C376.942,2.427 376.7,2.751 376.561,3.121C376.422,3.49 376.411,3.895 376.526,4.334C376.642,4.773 376.908,5.132 377.324,5.409C378.711,6.472 380.398,8.46 382.386,11.373C384.281,14.147 385.229,16.897 385.229,19.625C385.229,21.289 384.813,22.595 383.981,23.543C383.149,24.491 381.993,24.965 380.514,24.965C379.312,24.965 378.11,24.502 376.908,23.578C375.151,22.237 373.741,21.035 372.677,19.972L372.677,20.041L354.717,0.693C354.578,0.555 354.335,0.405 353.989,0.243C353.642,0.081 353.376,0 353.191,0L346.672,0Z" style="fill:rgb(246,179,106);fill-rule:nonzero;"/>
        </g>
        <g transform="matrix(0.977503,0,0,0.977503,816.867,763.327)">
            <path d="M269.836,134.718L269.836,93.163L296.409,93.163L296.409,102.02L278.694,102.02L278.694,113.26L294.194,113.26L294.194,122.118L278.694,122.118L278.694,134.718L269.836,134.718ZM300.837,134.718L300.837,93.163L314.123,93.163C322.981,93.163 327.409,97.592 327.409,106.449L327.409,108.832C327.409,112.581 326.612,115.534 325.018,117.689C326.612,119.844 327.409,122.797 327.409,126.547L327.409,134.718L318.552,134.718L318.552,126.547C318.552,123.594 317.076,122.118 314.123,122.118L309.695,122.118L309.695,134.718L300.837,134.718ZM29.949,0.381C49.14,0.381 58.736,9.977 58.736,29.168L58.736,55.741C58.736,74.932 49.14,84.527 29.949,84.527L20.354,84.527L20.354,134.718L1.163,134.718L1.163,0.381L29.949,0.381ZM164.286,0.381C183.477,0.381 193.073,9.977 193.073,29.168L173.882,29.168C173.882,22.771 170.683,19.572 164.286,19.572C157.889,19.572 154.691,22.771 154.691,29.168L154.691,105.932C154.691,112.329 157.889,115.527 164.286,115.527C170.683,115.527 173.882,112.329 173.882,105.932L193.073,105.932C193.073,125.123 183.477,134.718 164.286,134.718C145.095,134.718 135.5,125.123 135.5,105.932L135.5,29.168C135.5,9.977 145.095,0.381 164.286,0.381ZM68.331,55.741L68.331,0.381L87.522,0.381L87.522,55.741C87.522,62.138 90.721,65.336 97.118,65.336C103.515,65.336 106.713,62.138 106.713,55.741L106.713,0.381L125.904,0.381L125.904,55.741C125.904,71.413 119.507,80.689 106.713,83.568L106.713,134.718L87.522,134.718L87.522,83.568C74.728,80.689 68.331,71.413 68.331,55.741ZM202.668,29.168C202.668,9.977 212.264,0.381 231.455,0.381C250.645,0.381 260.241,9.977 260.241,29.168L260.241,105.932C260.241,125.123 250.645,134.718 231.455,134.718C212.264,134.718 202.668,125.123 202.668,105.932L202.668,29.168ZM231.455,19.572C225.058,19.572 221.859,22.771 221.859,29.168L221.859,105.932C221.859,112.329 225.058,115.527 231.455,115.527C237.852,115.527 241.05,112.329 241.05,105.932L241.05,29.168C241.05,22.771 237.852,19.572 231.455,19.572ZM318.552,106.449C318.552,103.497 317.076,102.02 314.123,102.02L309.695,102.02L309.695,113.26L314.123,113.26C317.076,113.26 318.552,111.784 318.552,108.832L318.552,106.449ZM289.027,29.168L289.027,83.568L269.836,83.568L269.836,29.168C269.836,9.977 279.432,0.381 298.623,0.381C317.814,0.381 327.409,9.977 327.409,29.168L327.409,83.568L308.218,83.568L308.218,29.168C308.218,22.771 305.02,19.572 298.623,19.572C292.226,19.572 289.027,22.771 289.027,29.168ZM39.545,29.168C39.545,22.771 36.346,19.572 29.949,19.572L20.354,19.572L20.354,65.336L29.949,65.336C36.346,65.336 39.545,62.138 39.545,55.741L39.545,29.168Z" style="fill:rgb(55,136,153);fill-rule:nonzero;"/>
        </g>
    </g>
</svg>
